<?xml version="1.0" encoding="UTF-8"?>
<!DOCTYPE svg PUBLIC "-//W3C//DTD SVG 1.1//EN" "http://www.w3.org/Graphics/SVG/1.1/DTD/svg11.dtd">
<svg xmlns="http://www.w3.org/2000/svg" version="1.1" width="2498px" height="2480px" style="shape-rendering:geometricPrecision; text-rendering:geometricPrecision; image-rendering:optimizeQuality; fill-rule:evenodd; clip-rule:evenodd" xmlns:xlink="http://www.w3.org/1999/xlink">
<g><path style="opacity:1" fill="#f9f9f9" d="M 1109.5,292.5 C 1110.49,292.328 1111.16,292.662 1111.5,293.5C 1112.78,294.931 1114.45,295.598 1116.5,295.5C 1116.74,297.404 1117.74,298.738 1119.5,299.5C 1123.53,301.868 1126.86,304.868 1129.5,308.5C 1129.24,312.237 1130.91,314.57 1134.5,315.5C 1135.83,316.167 1136.83,317.167 1137.5,318.5C 1137.43,320.027 1138.09,321.027 1139.5,321.5C 1144.18,327.09 1147.84,332.924 1150.5,339C 1152.16,340.444 1152.82,342.278 1152.5,344.5C 1152.46,347.077 1153.46,349.077 1155.5,350.5C 1158.08,354.563 1159.41,358.897 1159.5,363.5C 1159.75,367.04 1160.42,370.373 1161.5,373.5C 1161.18,381.019 1161.51,388.352 1162.5,395.5C 1162.59,401.516 1162.93,407.516 1163.5,413.5C 1162.94,421.017 1161.44,428.35 1159,435.5C 1158.79,439.089 1158.29,442.589 1157.5,446C 1158.06,446.725 1158.39,447.558 1158.5,448.5C 1157.81,450.177 1157.15,451.844 1156.5,453.5C 1154.96,455.838 1154.29,458.505 1154.5,461.5C 1154.31,466.126 1152.97,470.293 1150.5,474C 1150.96,474.414 1151.29,474.914 1151.5,475.5C 1150.48,477.604 1149.48,479.604 1148.5,481.5C 1147.23,483.905 1146.57,486.572 1146.5,489.5C 1145.75,495.053 1144.42,500.386 1142.5,505.5C 1140.95,505.821 1140.29,506.821 1140.5,508.5C 1139.52,516.725 1137.18,524.392 1133.5,531.5C 1131.93,533.102 1131.26,535.102 1131.5,537.5C 1131.44,540.664 1130.78,543.664 1129.5,546.5C 1127.95,546.821 1127.29,547.821 1127.5,549.5C 1126.87,552.64 1125.2,555.14 1122.5,557C 1123.68,558.145 1123.68,559.312 1122.5,560.5C 1121.83,563.5 1121.17,566.5 1120.5,569.5C 1119.74,571.368 1118.74,573.035 1117.5,574.5C 1116.26,576.214 1115.59,578.214 1115.5,580.5C 1115.28,583.067 1114.61,585.401 1113.5,587.5C 1112.08,589.515 1111.41,591.848 1111.5,594.5C 1108.81,605.605 1105.64,616.605 1102,627.5C 1100.75,638.478 1099.75,649.478 1099,660.5C 1098.41,664.601 1097.24,668.434 1095.5,672C 1095.96,672.414 1096.29,672.914 1096.5,673.5C 1094.77,675.851 1094.1,678.518 1094.5,681.5C 1094.5,683.167 1094.5,684.833 1094.5,686.5C 1094.5,686.833 1094.5,687.167 1094.5,687.5C 1093.26,689.214 1092.59,691.214 1092.5,693.5C 1091.69,695.631 1091.19,697.964 1091,700.5C 1082.84,705.548 1074.68,711.382 1066.5,718C 1065.55,718.483 1064.55,718.649 1063.5,718.5C 1063.54,720.359 1062.71,721.692 1061,722.5C 1060.99,719.655 1059.83,717.655 1057.5,716.5C 1056.57,715.432 1056.23,714.099 1056.5,712.5C 1056.89,709.447 1056.22,706.78 1054.5,704.5C 1052.38,701.015 1051.05,697.182 1050.5,693C 1050.21,683.509 1050.21,673.676 1050.5,663.5C 1050.83,660.167 1051.17,656.833 1051.5,653.5C 1053.05,650.742 1052.71,648.242 1050.5,646C 1050.9,643.93 1050.9,641.764 1050.5,639.5C 1051.97,635.602 1053.14,631.602 1054,627.5C 1054.02,620.907 1054.85,614.573 1056.5,608.5C 1058.07,606.898 1058.74,604.898 1058.5,602.5C 1058.5,602.167 1058.5,601.833 1058.5,601.5C 1059.4,600.791 1059.74,599.791 1059.5,598.5C 1059.41,595.848 1060.08,593.515 1061.5,591.5C 1063.04,589.162 1063.71,586.495 1063.5,583.5C 1067.43,568.412 1071.59,553.745 1076,539.5C 1078.08,535.664 1080.42,531.997 1083,528.5C 1083.49,525.018 1084.66,521.851 1086.5,519C 1086.17,518.667 1085.83,518.333 1085.5,518C 1087.06,515.217 1088.39,512.383 1089.5,509.5C 1091.16,507.562 1091.83,505.228 1091.5,502.5C 1092.51,499.79 1093.51,497.124 1094.5,494.5C 1096.59,493.415 1097.92,491.749 1098.5,489.5C 1100.98,488.313 1101.98,486.313 1101.5,483.5C 1101.41,480.848 1102.08,478.515 1103.5,476.5C 1104.92,474.485 1105.59,472.152 1105.5,469.5C 1107.82,467.815 1108.82,465.481 1108.5,462.5C 1110.16,460.562 1110.83,458.228 1110.5,455.5C 1112.04,453.162 1112.71,450.495 1112.5,447.5C 1112.4,445.447 1113.07,443.78 1114.5,442.5C 1115.92,440.485 1116.59,438.152 1116.5,435.5C 1116.61,430.373 1117.94,425.706 1120.5,421.5C 1121.11,420.609 1121.44,419.609 1121.5,418.5C 1121.23,416.901 1121.57,415.568 1122.5,414.5C 1123.49,407.687 1123.82,400.687 1123.5,393.5C 1123.74,383.792 1123.24,374.126 1122,364.5C 1118.96,358.892 1117.79,352.892 1118.5,346.5C 1118.71,343.505 1118.04,340.838 1116.5,338.5C 1115.26,336.786 1114.59,334.786 1114.5,332.5C 1114.84,330.517 1114.18,329.183 1112.5,328.5C 1111.6,327.791 1111.26,326.791 1111.5,325.5C 1111.89,322.447 1111.22,319.78 1109.5,317.5C 1108.33,316.486 1107.66,315.153 1107.5,313.5C 1107.77,311.62 1107.1,310.287 1105.5,309.5C 1104.54,307.698 1103.88,305.698 1103.5,303.5C 1103.5,299.5 1103.5,295.5 1103.5,291.5C 1105.56,291.517 1107.56,291.85 1109.5,292.5 Z"/></g>
<g><path style="opacity:0.137" fill="#4b4b4b" d="M 1111.5,293.5 C 1113.55,293.402 1115.22,294.069 1116.5,295.5C 1114.45,295.598 1112.78,294.931 1111.5,293.5 Z"/></g>
<g><path style="opacity:1" fill="#a8a8a8" d="M 1109.5,292.5 C 1107.56,291.85 1105.56,291.517 1103.5,291.5C 1103.5,295.5 1103.5,299.5 1103.5,303.5C 1101.03,299.413 1100.86,295.08 1103,290.5C 1105.7,289.261 1107.87,289.927 1109.5,292.5 Z"/></g>
<g><path style="opacity:0.788" fill="#737373" d="M 1116.5,295.5 C 1118.26,296.262 1119.26,297.596 1119.5,299.5C 1117.74,298.738 1116.74,297.404 1116.5,295.5 Z"/></g>
<g><path style="opacity:0.816" fill="#808080" d="M 1105.5,309.5 C 1107.1,310.287 1107.77,311.62 1107.5,313.5C 1105.9,312.713 1105.23,311.38 1105.5,309.5 Z"/></g>
<g><path style="opacity:1" fill="#8d8d8d" d="M 1129.5,308.5 C 1130.98,310.891 1132.65,313.224 1134.5,315.5C 1130.91,314.57 1129.24,312.237 1129.5,308.5 Z"/></g>
<g><path style="opacity:0.6" fill="#666666" d="M 1137.5,318.5 C 1138.91,318.973 1139.57,319.973 1139.5,321.5C 1138.09,321.027 1137.43,320.027 1137.5,318.5 Z"/></g>
<g><path style="opacity:0.475" fill="#777777" d="M 1109.5,317.5 C 1111.22,319.78 1111.89,322.447 1111.5,325.5C 1110.47,323.039 1109.8,320.373 1109.5,317.5 Z"/></g>
<g><path style="opacity:1" fill="#868686" d="M 1112.5,328.5 C 1114.18,329.183 1114.84,330.517 1114.5,332.5C 1112.9,331.713 1112.23,330.38 1112.5,328.5 Z"/></g>
<g><path style="opacity:0.514" fill="#767676" d="M 1116.5,338.5 C 1118.04,340.838 1118.71,343.505 1118.5,346.5C 1117.23,344.095 1116.57,341.428 1116.5,338.5 Z"/></g>
<g><path style="opacity:1" fill="#a4a4a4" d="M 1152.5,344.5 C 1154.35,346.03 1155.35,348.03 1155.5,350.5C 1153.46,349.077 1152.46,347.077 1152.5,344.5 Z"/></g>
<g><path style="opacity:0.592" fill="#999999" d="M 1159.5,363.5 C 1160.22,363.918 1160.72,364.584 1161,365.5C 1161.5,368.146 1161.66,370.813 1161.5,373.5C 1160.42,370.373 1159.75,367.04 1159.5,363.5 Z"/></g>
<g><path style="opacity:0.38" fill="#646464" d="M 322.5,383.5 C 321.677,380.023 321.177,376.356 321,372.5C 319.913,370.068 319.413,370.402 319.5,373.5C 319.167,373.5 318.833,373.5 318.5,373.5C 317.164,369.812 318.331,368.479 322,369.5C 322.499,374.155 322.666,378.821 322.5,383.5 Z"/></g>
<g><path style="opacity:0.38" fill="#656565" d="M 2183.5,384.5 C 2182.68,380.688 2182.18,376.688 2182,372.5C 2180.91,370.068 2180.41,370.402 2180.5,373.5C 2180.17,373.5 2179.83,373.5 2179.5,373.5C 2178.16,369.812 2179.33,368.479 2183,369.5C 2183.5,374.489 2183.67,379.489 2183.5,384.5 Z"/></g>
<g><path style="opacity:1" fill="#fbfbfb" d="M 322.5,383.5 C 322.5,384.167 322.5,384.833 322.5,385.5C 323.183,394.818 323.517,404.151 323.5,413.5C 323.135,426.708 323.802,439.708 325.5,452.5C 325.198,455.059 325.532,457.393 326.5,459.5C 327.486,477.757 327.82,496.09 327.5,514.5C 327.191,538.687 327.858,562.687 329.5,586.5C 329.5,590.167 329.5,593.833 329.5,597.5C 329.876,632.668 330.543,667.668 331.5,702.5C 331.5,704.833 331.5,707.167 331.5,709.5C 330.836,792.173 331.503,874.507 333.5,956.5C 333.5,1135.83 333.5,1315.17 333.5,1494.5C 332.419,1536 331.753,1577.66 331.5,1619.5C 331.5,1680.17 331.5,1740.83 331.5,1801.5C 330.502,1834.33 330.168,1867.33 330.5,1900.5C 329.671,1908.66 329.171,1916.99 329,1925.5C 328.5,1951.5 328.333,1977.5 328.5,2003.5C 326.564,2007.71 325.897,2012.38 326.5,2017.5C 325.081,2058.36 323.415,2099.36 321.5,2140.5C 321.5,2144.17 321.5,2147.83 321.5,2151.5C 319.875,2148.11 318.875,2144.44 318.5,2140.5C 316.774,2115.52 315.44,2090.52 314.5,2065.5C 314.904,2024.31 313.904,1983.31 311.5,1942.5C 311.5,1938.83 311.5,1935.17 311.5,1931.5C 310.973,1900.67 310.306,1870 309.5,1839.5C 308.7,1787.5 308.367,1735.5 308.5,1683.5C 308.78,1645.99 308.113,1608.65 306.5,1571.5C 306.5,1366.83 306.5,1162.17 306.5,957.5C 307.664,920.338 308.331,883.005 308.5,845.5C 310.057,804.677 310.723,763.677 310.5,722.5C 310.5,701.5 310.5,680.5 310.5,659.5C 310.894,638.501 311.227,617.501 311.5,596.5C 311.726,554.654 312.726,512.987 314.5,471.5C 315.319,468.695 315.819,465.695 316,462.5C 316.5,446.837 316.667,431.17 316.5,415.5C 317.053,410.518 317.387,405.518 317.5,400.5C 318.309,398.708 318.809,396.708 319,394.5C 319.5,387.508 319.666,380.508 319.5,373.5C 319.413,370.402 319.913,370.068 321,372.5C 321.177,376.356 321.677,380.023 322.5,383.5 Z"/></g>
<g><path style="opacity:1" fill="#fbfbfb" d="M 1226.5,380.5 C 1227.11,382.434 1228.11,384.101 1229.5,385.5C 1231.01,389.853 1232.68,394.187 1234.5,398.5C 1234.66,400.153 1235.33,401.486 1236.5,402.5C 1236.33,406.182 1236.5,409.848 1237,413.5C 1237.38,414.056 1237.88,414.389 1238.5,414.5C 1241.14,416.482 1242.47,419.148 1242.5,422.5C 1242.39,426.548 1242.73,430.548 1243.5,434.5C 1238.55,472.28 1228.21,509.113 1212.5,545C 1212.74,547.562 1211.74,549.896 1209.5,552C 1208.61,558.301 1206.28,564.301 1202.5,570C 1193.92,593.756 1185.75,617.589 1178,641.5C 1176.39,644.251 1175.05,647.584 1174,651.5C 1163.37,672.333 1150.37,692 1135,710.5C 1134.67,710.167 1134.33,709.833 1134,709.5C 1132.29,711.543 1130.29,713.21 1128,714.5C 1127.6,714.272 1127.43,713.938 1127.5,713.5C 1127.5,711.833 1127.5,710.167 1127.5,708.5C 1127.5,704.165 1127.5,699.831 1127.5,695.5C 1127.5,692.5 1127.5,689.5 1127.5,686.5C 1127.68,683.273 1128.34,680.273 1129.5,677.5C 1130.22,677.082 1130.72,676.416 1131,675.5C 1131.64,671.509 1132.14,667.509 1132.5,663.5C 1135.27,654.961 1136.94,645.961 1137.5,636.5C 1139.37,632.485 1140.37,628.151 1140.5,623.5C 1141.6,619.663 1142.93,615.996 1144.5,612.5C 1146.04,610.162 1146.71,607.495 1146.5,604.5C 1149.51,601.818 1151.51,598.485 1152.5,594.5C 1154.28,593.01 1154.95,591.01 1154.5,588.5C 1155.36,585.368 1156.36,582.368 1157.5,579.5C 1159.16,577.562 1159.83,575.228 1159.5,572.5C 1161.14,568.632 1162.47,564.632 1163.5,560.5C 1166.2,557.079 1167.53,553.079 1167.5,548.5C 1169.2,546.192 1170.54,543.526 1171.5,540.5C 1174.1,536.703 1176.1,532.536 1177.5,528C 1178.64,526.598 1179.98,525.431 1181.5,524.5C 1182.67,523.486 1183.34,522.153 1183.5,520.5C 1183.26,519.209 1183.6,518.209 1184.5,517.5C 1186.07,515.898 1186.74,513.898 1186.5,511.5C 1186.85,507.641 1188.68,504.641 1192,502.5C 1193.22,498.977 1194.72,495.644 1196.5,492.5C 1198.68,489.619 1199.68,486.286 1199.5,482.5C 1200.49,481.205 1201.49,479.872 1202.5,478.5C 1203.99,475.527 1205.32,472.527 1206.5,469.5C 1208.04,467.162 1208.71,464.495 1208.5,461.5C 1208.39,459.486 1209.06,457.82 1210.5,456.5C 1211.92,454.485 1212.59,452.152 1212.5,449.5C 1214.48,446.201 1215.48,442.534 1215.5,438.5C 1215.33,433.156 1215.5,427.823 1216,422.5C 1216.72,421.956 1217.22,421.289 1217.5,420.5C 1218.99,419.688 1219.66,418.355 1219.5,416.5C 1218.79,413.201 1218.46,409.867 1218.5,406.5C 1218.61,402.452 1218.27,398.452 1217.5,394.5C 1216.73,389.203 1216.39,383.87 1216.5,378.5C 1217.13,377.053 1218.3,376.387 1220,376.5C 1222.59,377.207 1224.75,378.541 1226.5,380.5 Z"/></g>
<g><path style="opacity:1" fill="#fbfbfb" d="M 2183.5,384.5 C 2183.5,384.833 2183.5,385.167 2183.5,385.5C 2184.18,394.818 2184.52,404.151 2184.5,413.5C 2184.14,426.708 2184.8,439.708 2186.5,452.5C 2186.2,455.059 2186.53,457.393 2187.5,459.5C 2188.49,477.757 2188.82,496.09 2188.5,514.5C 2188.79,538.671 2189.46,562.671 2190.5,586.5C 2190.5,590.167 2190.5,593.833 2190.5,597.5C 2190.88,632.668 2191.54,667.668 2192.5,702.5C 2193.37,719.15 2193.71,735.816 2193.5,752.5C 2194.31,999.832 2194.64,1247.17 2194.5,1494.5C 2193.42,1536 2192.75,1577.66 2192.5,1619.5C 2192.5,1680.17 2192.5,1740.83 2192.5,1801.5C 2191.5,1834.33 2191.17,1867.33 2191.5,1900.5C 2190.67,1908.66 2190.17,1916.99 2190,1925.5C 2189.5,1951.5 2189.33,1977.5 2189.5,2003.5C 2187.52,2014.79 2186.85,2026.45 2187.5,2038.5C 2187.64,2050.18 2187.3,2061.85 2186.5,2073.5C 2185.68,2099.53 2184.35,2125.53 2182.5,2151.5C 2180.87,2148.11 2179.87,2144.44 2179.5,2140.5C 2178.97,2115.66 2177.97,2090.99 2176.5,2066.5C 2176.5,2065.83 2176.17,2065.5 2175.5,2065.5C 2175.51,2016.98 2174.51,1968.65 2172.5,1920.5C 2171.88,1893.35 2171.21,1866.35 2170.5,1839.5C 2169.7,1787.5 2169.37,1735.5 2169.5,1683.5C 2169.78,1645.99 2169.11,1608.65 2167.5,1571.5C 2167.5,1366.83 2167.5,1162.17 2167.5,957.5C 2168.65,920.338 2169.31,883.004 2169.5,845.5C 2171.06,804.677 2171.72,763.677 2171.5,722.5C 2171.5,701.5 2171.5,680.5 2171.5,659.5C 2171.89,638.501 2172.23,617.501 2172.5,596.5C 2172.69,554.653 2173.69,512.987 2175.5,471.5C 2176.32,468.695 2176.82,465.695 2177,462.5C 2178.63,432.859 2179.79,403.192 2180.5,373.5C 2180.41,370.402 2180.91,370.068 2182,372.5C 2182.18,376.688 2182.68,380.688 2183.5,384.5 Z"/></g>
<g><path style="opacity:1" fill="#c1c1c1" d="M 1161.5,373.5 C 1163.8,380.606 1164.14,387.94 1162.5,395.5C 1161.51,388.352 1161.18,381.019 1161.5,373.5 Z"/></g>
<g><path style="opacity:0.545" fill="#777777" d="M 1226.5,380.5 C 1228.73,381.401 1229.73,383.067 1229.5,385.5C 1228.11,384.101 1227.11,382.434 1226.5,380.5 Z"/></g>
<g><path style="opacity:0.922" fill="#717171" d="M 1216.5,378.5 C 1216.39,383.87 1216.73,389.203 1217.5,394.5C 1214.1,389.323 1213.77,383.989 1216.5,378.5 Z"/></g>
<g><path style="opacity:1" fill="#a9a9a9" d="M 318.5,373.5 C 318.833,373.5 319.167,373.5 319.5,373.5C 319.666,380.508 319.5,387.508 319,394.5C 318.809,396.708 318.309,398.708 317.5,400.5C 317.5,396.167 317.5,391.833 317.5,387.5C 317.181,382.637 317.514,377.97 318.5,373.5 Z"/></g>
<g><path style="opacity:0.607" fill="#565656" d="M 317.5,387.5 C 317.5,391.833 317.5,396.167 317.5,400.5C 317.387,405.518 317.053,410.518 316.5,415.5C 316.167,415.5 315.833,415.5 315.5,415.5C 315.645,409.005 315.645,402.672 315.5,396.5C 315.991,393.326 316.657,390.326 317.5,387.5 Z"/></g>
<g><path style="opacity:0.195" fill="#525252" d="M 322.5,385.5 C 323.29,386.609 323.79,387.942 324,389.5C 324.5,397.493 324.666,405.493 324.5,413.5C 324.167,413.5 323.833,413.5 323.5,413.5C 323.517,404.151 323.183,394.818 322.5,385.5 Z"/></g>
<g><path style="opacity:0.195" fill="#525252" d="M 2183.5,385.5 C 2184.29,386.609 2184.79,387.942 2185,389.5C 2185.5,397.493 2185.67,405.493 2185.5,413.5C 2185.17,413.5 2184.83,413.5 2184.5,413.5C 2184.52,404.151 2184.18,394.818 2183.5,385.5 Z"/></g>
<g><path style="opacity:0.702" fill="#565656" d="M 2178.5,387.5 C 2178.67,394.841 2178.5,402.174 2178,409.5C 2177.81,411.708 2177.31,413.708 2176.5,415.5C 2176.65,409.005 2176.65,402.672 2176.5,396.5C 2176.99,393.326 2177.66,390.326 2178.5,387.5 Z"/></g>
<g><path style="opacity:0.243" fill="#5d5d5d" d="M 1234.5,398.5 C 1236.1,399.287 1236.77,400.62 1236.5,402.5C 1235.33,401.486 1234.66,400.153 1234.5,398.5 Z"/></g>
<g><path style="opacity:1" fill="#9e9e9e" d="M 1162.5,395.5 C 1163.17,400.009 1164.17,404.509 1165.5,409C 1165.69,411.008 1165.03,412.508 1163.5,413.5C 1162.93,407.516 1162.59,401.516 1162.5,395.5 Z"/></g>
<g><path style="opacity:0.655" fill="#9d9d9d" d="M 1123.5,393.5 C 1123.82,400.687 1123.49,407.687 1122.5,414.5C 1121.57,407.378 1121.91,400.378 1123.5,393.5 Z"/></g>
<g><path style="opacity:1" fill="#949494" d="M 1218.5,406.5 C 1218.46,409.867 1218.79,413.201 1219.5,416.5C 1219.66,418.355 1218.99,419.688 1217.5,420.5C 1218.81,417.049 1218.48,413.716 1216.5,410.5C 1216.67,408.829 1217.33,407.496 1218.5,406.5 Z"/></g>
<g><path style="opacity:1" fill="#b2b2b2" d="M 1236.5,402.5 C 1237.79,406.267 1238.46,410.267 1238.5,414.5C 1237.88,414.389 1237.38,414.056 1237,413.5C 1236.5,409.848 1236.33,406.182 1236.5,402.5 Z"/></g>
<g><path style="opacity:1" fill="#b3b3b3" d="M 2179.5,373.5 C 2179.83,373.5 2180.17,373.5 2180.5,373.5C 2179.79,403.192 2178.63,432.859 2177,462.5C 2176.82,465.695 2176.32,468.695 2175.5,471.5C 2175.5,465.167 2175.5,458.833 2175.5,452.5C 2175.23,440.129 2175.56,427.796 2176.5,415.5C 2177.31,413.708 2177.81,411.708 2178,409.5C 2178.5,402.174 2178.67,394.841 2178.5,387.5C 2178.18,382.637 2178.51,377.97 2179.5,373.5 Z"/></g>
<g><path style="opacity:0.651" fill="#5c5c5c" d="M 1121.5,418.5 C 1121.44,419.609 1121.11,420.609 1120.5,421.5C 1119.28,420.221 1119.62,419.221 1121.5,418.5 Z"/></g>
<g><path style="opacity:0.31" fill="#616161" d="M 1242.5,422.5 C 1243.48,426.316 1244.15,430.316 1244.5,434.5C 1244.17,434.5 1243.83,434.5 1243.5,434.5C 1242.73,430.548 1242.39,426.548 1242.5,422.5 Z"/></g>
<g><path style="opacity:0.824" fill="#a0a0a0" d="M 1116.5,435.5 C 1116.59,438.152 1115.92,440.485 1114.5,442.5C 1114.41,439.848 1115.08,437.515 1116.5,435.5 Z"/></g>
<g><path style="opacity:1" fill="#b4b4b4" d="M 323.5,413.5 C 323.833,413.5 324.167,413.5 324.5,413.5C 324.5,414.167 324.5,414.833 324.5,415.5C 325.179,427.822 325.513,440.155 325.5,452.5C 323.802,439.708 323.135,426.708 323.5,413.5 Z"/></g>
<g><path style="opacity:0.109" fill="#3c3c3c" d="M 324.5,415.5 C 326.274,429.959 326.941,444.625 326.5,459.5C 325.532,457.393 325.198,455.059 325.5,452.5C 325.513,440.155 325.179,427.822 324.5,415.5 Z"/></g>
<g><path style="opacity:1" fill="#b4b4b4" d="M 2184.5,413.5 C 2184.83,413.5 2185.17,413.5 2185.5,413.5C 2185.5,414.167 2185.5,414.833 2185.5,415.5C 2186.18,427.822 2186.51,440.155 2186.5,452.5C 2184.8,439.708 2184.14,426.708 2184.5,413.5 Z"/></g>
<g><path style="opacity:0.108" fill="#3c3c3c" d="M 2185.5,415.5 C 2187.27,429.959 2187.94,444.625 2187.5,459.5C 2186.53,457.393 2186.2,455.059 2186.5,452.5C 2186.51,440.155 2186.18,427.822 2185.5,415.5 Z"/></g>
<g><path style="opacity:0.514" fill="#8b8b8b" d="M 1215.5,438.5 C 1215.48,442.534 1214.48,446.201 1212.5,449.5C 1212.74,445.521 1213.74,441.854 1215.5,438.5 Z"/></g>
<g><path style="opacity:1" fill="#e8e8e8" d="M 1243.5,434.5 C 1243.83,434.5 1244.17,434.5 1244.5,434.5C 1245.48,437.962 1245.81,441.629 1245.5,445.5C 1247.06,449.608 1247.72,453.941 1247.5,458.5C 1246.63,460.717 1246.3,463.05 1246.5,465.5C 1245.87,470.141 1245.54,474.807 1245.5,479.5C 1246.62,481.979 1246.62,484.312 1245.5,486.5C 1244.01,490.236 1243.34,494.236 1243.5,498.5C 1240.16,502.418 1237.5,506.418 1235.5,510.5C 1235.83,511.167 1236.17,511.833 1236.5,512.5C 1230.95,521.352 1227.12,530.685 1225,540.5C 1224.17,542 1223,543.167 1221.5,544C 1222.73,545.587 1222.39,546.921 1220.5,548C 1222.19,549.401 1222.86,551.234 1222.5,553.5C 1221.18,553.33 1220.01,553.663 1219,554.5C 1214.1,566 1208.76,577.666 1203,589.5C 1201.62,592.368 1200.78,595.368 1200.5,598.5C 1199.17,599.167 1198.17,600.167 1197.5,601.5C 1196.42,601.539 1195.42,601.873 1194.5,602.5C 1193.77,605.666 1192.6,608.666 1191,611.5C 1190.67,613.847 1190.83,616.181 1191.5,618.5C 1190.95,621.746 1189.95,624.746 1188.5,627.5C 1187.66,628.671 1186.99,630.005 1186.5,631.5C 1185.88,632.627 1185.04,633.627 1184,634.5C 1180.76,646.825 1176.92,658.825 1172.5,670.5C 1161.51,683.781 1151.01,698.114 1141,713.5C 1136.61,717.403 1132.11,721.069 1127.5,724.5C 1125.25,722.55 1124.91,720.216 1126.5,717.5C 1126.23,715.901 1126.57,714.568 1127.5,713.5C 1127.43,713.938 1127.6,714.272 1128,714.5C 1130.29,713.21 1132.29,711.543 1134,709.5C 1134.33,709.833 1134.67,710.167 1135,710.5C 1150.37,692 1163.37,672.333 1174,651.5C 1175.05,647.584 1176.39,644.251 1178,641.5C 1185.75,617.589 1193.92,593.756 1202.5,570C 1206.28,564.301 1208.61,558.301 1209.5,552C 1211.74,549.896 1212.74,547.562 1212.5,545C 1228.21,509.113 1238.55,472.28 1243.5,434.5 Z"/></g>
<g><path style="opacity:0.992" fill="#8f8f8f" d="M 1245.5,445.5 C 1247.41,447.952 1248.74,450.786 1249.5,454C 1249.48,455.876 1248.81,457.376 1247.5,458.5C 1247.72,453.941 1247.06,449.608 1245.5,445.5 Z"/></g>
<g><path style="opacity:0.329" fill="#6e6e6e" d="M 1112.5,447.5 C 1112.71,450.495 1112.04,453.162 1110.5,455.5C 1110.29,452.505 1110.96,449.838 1112.5,447.5 Z"/></g>
<g><path style="opacity:0.894" fill="#9b9b9b" d="M 1212.5,449.5 C 1212.59,452.152 1211.92,454.485 1210.5,456.5C 1210.06,456.565 1209.73,456.399 1209.5,456C 1210.42,453.706 1211.42,451.539 1212.5,449.5 Z"/></g>
<g><path style="opacity:1" fill="#ababab" d="M 315.5,415.5 C 315.833,415.5 316.167,415.5 316.5,415.5C 316.667,431.17 316.5,446.837 316,462.5C 315.819,465.695 315.319,468.695 314.5,471.5C 314.5,465.167 314.5,458.833 314.5,452.5C 314.227,440.129 314.56,427.796 315.5,415.5 Z"/></g>
<g><path style="opacity:0.553" fill="#939393" d="M 1156.5,453.5 C 1156.43,456.428 1155.77,459.095 1154.5,461.5C 1154.29,458.505 1154.96,455.838 1156.5,453.5 Z"/></g>
<g><path style="opacity:0.749" fill="#a3a3a3" d="M 1110.5,455.5 C 1110.83,458.228 1110.16,460.562 1108.5,462.5C 1108.41,459.848 1109.08,457.515 1110.5,455.5 Z"/></g>
<g><path style="opacity:0.933" fill="#8e8e8e" d="M 1108.5,462.5 C 1108.82,465.481 1107.82,467.815 1105.5,469.5C 1106.09,466.937 1107.09,464.604 1108.5,462.5 Z"/></g>
<g><path style="opacity:0.584" fill="#8a8a8a" d="M 1208.5,461.5 C 1208.71,464.495 1208.04,467.162 1206.5,469.5C 1206.57,466.572 1207.23,463.905 1208.5,461.5 Z"/></g>
<g><path style="opacity:0.369" fill="#606060" d="M 1105.5,469.5 C 1105.59,472.152 1104.92,474.485 1103.5,476.5C 1103.41,473.848 1104.08,471.515 1105.5,469.5 Z"/></g>
<g><path style="opacity:0.62" fill="#8b8b8b" d="M 1246.5,465.5 C 1247.53,466.374 1248.19,467.541 1248.5,469C 1247.06,472.448 1246.06,475.948 1245.5,479.5C 1245.54,474.807 1245.87,470.141 1246.5,465.5 Z"/></g>
<g><path style="opacity:1" fill="#595959" d="M 1281.5,477.5 C 1279.5,477.5 1277.5,477.5 1275.5,477.5C 1275.3,474.482 1274.96,471.482 1274.5,468.5C 1278.55,468.535 1281.21,470.535 1282.5,474.5C 1281.87,475.417 1281.54,476.417 1281.5,477.5 Z"/></g>
<g><path style="opacity:0.38" fill="#656565" d="M 1202.5,478.5 C 1201.49,479.872 1200.49,481.205 1199.5,482.5C 1199.09,480.027 1200.09,478.694 1202.5,478.5 Z"/></g>
<g><path style="opacity:1" fill="#e3e3e3" d="M 1275.5,477.5 C 1277.5,477.5 1279.5,477.5 1281.5,477.5C 1283.58,479.573 1285.25,481.907 1286.5,484.5C 1287.52,492.139 1287.69,499.805 1287,507.5C 1281.07,517.695 1276.57,528.195 1273.5,539C 1270.13,544.916 1266.63,550.75 1263,556.5C 1262.5,554.19 1262.34,551.857 1262.5,549.5C 1262.26,548.209 1262.6,547.209 1263.5,546.5C 1265.16,544.562 1265.83,542.228 1265.5,539.5C 1268.23,518.551 1271.56,497.884 1275.5,477.5 Z"/></g>
<g><path style="opacity:1" fill="#a6a6a6" d="M 1101.5,483.5 C 1101.98,486.313 1100.98,488.313 1098.5,489.5C 1099.51,487.456 1100.51,485.456 1101.5,483.5 Z"/></g>
<g><path style="opacity:0.6" fill="#979797" d="M 1148.5,481.5 C 1148.71,484.495 1148.04,487.162 1146.5,489.5C 1146.57,486.572 1147.23,483.905 1148.5,481.5 Z"/></g>
<g><path style="opacity:1" fill="#a3a3a3" d="M 1199.5,482.5 C 1199.68,486.286 1198.68,489.619 1196.5,492.5C 1196.06,492.565 1195.73,492.399 1195.5,492C 1196.92,488.778 1198.25,485.612 1199.5,482.5 Z"/></g>
<g><path style="opacity:0.283" fill="#525252" d="M 314.5,452.5 C 314.5,458.833 314.5,465.167 314.5,471.5C 312.726,512.987 311.726,554.654 311.5,596.5C 311.167,596.5 310.833,596.5 310.5,596.5C 311,552.162 311.834,507.829 313,463.5C 313.177,459.644 313.677,455.977 314.5,452.5 Z"/></g>
<g><path style="opacity:0.284" fill="#535353" d="M 2175.5,452.5 C 2175.5,458.833 2175.5,465.167 2175.5,471.5C 2173.69,512.987 2172.69,554.653 2172.5,596.5C 2172.17,596.5 2171.83,596.5 2171.5,596.5C 2172.04,552.163 2172.87,507.83 2174,463.5C 2174.18,459.644 2174.68,455.977 2175.5,452.5 Z"/></g>
<g><path style="opacity:0.769" fill="#8e8e8e" d="M 1098.5,489.5 C 1097.92,491.749 1096.59,493.415 1094.5,494.5C 1095.08,492.251 1096.41,490.585 1098.5,489.5 Z"/></g>
<g><path style="opacity:0.455" fill="#7b7b7b" d="M 1245.5,486.5 C 1245.46,490.733 1244.79,494.733 1243.5,498.5C 1243.34,494.236 1244.01,490.236 1245.5,486.5 Z"/></g>
<g><path style="opacity:1" fill="#c2c2c2" d="M 1243.5,498.5 C 1243.02,505.768 1241.02,512.434 1237.5,518.5C 1236.26,520.214 1235.59,522.214 1235.5,524.5C 1234.03,527.993 1232.86,531.66 1232,535.5C 1228.53,541.435 1225.37,547.435 1222.5,553.5C 1222.86,551.234 1222.19,549.401 1220.5,548C 1222.39,546.921 1222.73,545.587 1221.5,544C 1223,543.167 1224.17,542 1225,540.5C 1227.12,530.685 1230.95,521.352 1236.5,512.5C 1236.17,511.833 1235.83,511.167 1235.5,510.5C 1237.5,506.418 1240.16,502.418 1243.5,498.5 Z"/></g>
<g><path style="opacity:0.659" fill="#828282" d="M 1142.5,505.5 C 1142.07,506.71 1141.4,507.71 1140.5,508.5C 1140.29,506.821 1140.95,505.821 1142.5,505.5 Z"/></g>
<g><path style="opacity:0.612" fill="#939393" d="M 1091.5,502.5 C 1091.83,505.228 1091.16,507.562 1089.5,509.5C 1089.41,506.848 1090.08,504.515 1091.5,502.5 Z"/></g>
<g><path style="opacity:1" fill="#d1d1d1" d="M 1286.5,484.5 C 1288.54,492.468 1289.87,500.468 1290.5,508.5C 1290.96,511.482 1291.3,514.482 1291.5,517.5C 1290.2,518.884 1290.2,520.384 1291.5,522C 1287.78,525.943 1284.95,530.443 1283,535.5C 1272.93,565.348 1258.26,592.014 1239,615.5C 1238.67,615.167 1238.33,614.833 1238,614.5C 1237.69,615.308 1237.19,615.975 1236.5,616.5C 1235.57,615.311 1235.24,613.978 1235.5,612.5C 1237.04,610.162 1237.71,607.495 1237.5,604.5C 1241.12,598.257 1244.45,591.924 1247.5,585.5C 1249.16,583.562 1249.83,581.228 1249.5,578.5C 1249.69,576.436 1250.19,574.436 1251,572.5C 1254.9,564.701 1258.73,557.035 1262.5,549.5C 1262.34,551.857 1262.5,554.19 1263,556.5C 1266.63,550.75 1270.13,544.916 1273.5,539C 1276.57,528.195 1281.07,517.695 1287,507.5C 1287.69,499.805 1287.52,492.139 1286.5,484.5 Z"/></g>
<g><path style="opacity:0.351" fill="#6f6f6f" d="M 1290.5,508.5 C 1291.22,508.918 1291.72,509.584 1292,510.5C 1292.5,513.482 1292.66,516.482 1292.5,519.5C 1291.66,519.158 1291.33,518.492 1291.5,517.5C 1291.3,514.482 1290.96,511.482 1290.5,508.5 Z"/></g>
<g><path style="opacity:0.678" fill="#969696" d="M 1186.5,511.5 C 1186.74,513.898 1186.07,515.898 1184.5,517.5C 1184.26,515.102 1184.93,513.102 1186.5,511.5 Z"/></g>
<g><path style="opacity:0.843" fill="#777777" d="M 1183.5,520.5 C 1183.34,522.153 1182.67,523.486 1181.5,524.5C 1181.23,522.62 1181.9,521.287 1183.5,520.5 Z"/></g>
<g><path style="opacity:0.204" fill="#595959" d="M 1237.5,518.5 C 1237.74,520.898 1237.07,522.898 1235.5,524.5C 1235.59,522.214 1236.26,520.214 1237.5,518.5 Z"/></g>
<g><path style="opacity:1" fill="#c4c4c4" d="M 1291.5,517.5 C 1291.33,518.492 1291.66,519.158 1292.5,519.5C 1292.5,523.167 1292.5,526.833 1292.5,530.5C 1280.08,562.317 1264.58,593.317 1246,623.5C 1238.97,633.218 1230.64,640.885 1221,646.5C 1218.8,648.615 1216.8,650.949 1215,653.5C 1213.68,651.75 1213.18,649.75 1213.5,647.5C 1214.48,644.522 1216.48,642.522 1219.5,641.5C 1222.13,639.236 1223.46,636.236 1223.5,632.5C 1226,628.504 1227.84,624.171 1229,619.5C 1231.4,617.271 1233.57,614.937 1235.5,612.5C 1235.24,613.978 1235.57,615.311 1236.5,616.5C 1237.19,615.975 1237.69,615.308 1238,614.5C 1238.33,614.833 1238.67,615.167 1239,615.5C 1258.26,592.014 1272.93,565.348 1283,535.5C 1284.95,530.443 1287.78,525.943 1291.5,522C 1290.2,520.384 1290.2,518.884 1291.5,517.5 Z"/></g>
<g><path style="opacity:0.212" fill="#555555" d="M 1133.5,531.5 C 1133.41,533.786 1132.74,535.786 1131.5,537.5C 1131.26,535.102 1131.93,533.102 1133.5,531.5 Z"/></g>
<g><path style="opacity:0.282" fill="#6d6d6d" d="M 327.5,514.5 C 328.323,517.977 328.823,521.644 329,525.5C 329.5,545.831 329.667,566.164 329.5,586.5C 327.858,562.687 327.191,538.687 327.5,514.5 Z"/></g>
<g><path style="opacity:0.281" fill="#5f5f5f" d="M 2188.5,514.5 C 2189.32,517.977 2189.82,521.644 2190,525.5C 2190.5,545.831 2190.67,566.164 2190.5,586.5C 2189.46,562.671 2188.79,538.671 2188.5,514.5 Z"/></g>
<g><path style="opacity:0.176" fill="#565656" d="M 1265.5,539.5 C 1265.83,542.228 1265.16,544.562 1263.5,546.5C 1263.41,543.848 1264.08,541.515 1265.5,539.5 Z"/></g>
<g><path style="opacity:0.553" fill="#727272" d="M 1129.5,546.5 C 1129.07,547.71 1128.4,548.71 1127.5,549.5C 1127.29,547.821 1127.95,546.821 1129.5,546.5 Z"/></g>
<g><path style="opacity:1" fill="#a2a2a2" d="M 1171.5,540.5 C 1170.54,543.526 1169.2,546.192 1167.5,548.5C 1167.53,545.006 1168.87,542.339 1171.5,540.5 Z"/></g>
<g><path style="opacity:0.998" fill="#c0c0c0" d="M 1222.5,553.5 C 1222.13,555.441 1221.46,557.275 1220.5,559C 1220.96,559.414 1221.29,559.914 1221.5,560.5C 1216.37,567.361 1212.87,575.027 1211,583.5C 1207.22,588.424 1203.72,593.424 1200.5,598.5C 1200.78,595.368 1201.62,592.368 1203,589.5C 1208.76,577.666 1214.1,566 1219,554.5C 1220.01,553.663 1221.18,553.33 1222.5,553.5 Z"/></g>
<g><path style="opacity:1" fill="#ababab" d="M 1167.5,548.5 C 1167.53,553.079 1166.2,557.079 1163.5,560.5C 1164.26,556.216 1165.59,552.216 1167.5,548.5 Z"/></g>
<g><path style="opacity:0.894" fill="#8d8d8d" d="M 1122.5,560.5 C 1123.29,560.783 1123.96,561.283 1124.5,562C 1123.25,564.633 1121.91,567.133 1120.5,569.5C 1121.17,566.5 1121.83,563.5 1122.5,560.5 Z"/></g>
<g><path style="opacity:1" fill="#a9a9a9" d="M 1292.5,519.5 C 1293.61,521.586 1294.28,523.92 1294.5,526.5C 1294.55,537.305 1294.21,547.972 1293.5,558.5C 1292.68,561.977 1292.18,565.644 1292,569.5C 1288.08,574.996 1284.42,580.663 1281,586.5C 1269.68,610.656 1257.35,634.322 1244,657.5C 1241.83,660.333 1239.67,663.167 1237.5,666C 1222.8,677.021 1208.97,689.188 1196,702.5C 1191.68,709.694 1187.35,716.36 1183,722.5C 1182.5,720.527 1182.34,718.527 1182.5,716.5C 1183.01,710.464 1185.18,705.13 1189,700.5C 1190.03,695.892 1191.53,691.559 1193.5,687.5C 1194.49,685.544 1195.49,683.544 1196.5,681.5C 1196.5,679.5 1197.5,678.5 1199.5,678.5C 1200.9,677.9 1201.9,676.9 1202.5,675.5C 1202.6,677.973 1203.6,678.639 1205.5,677.5C 1206.68,675.954 1207.68,674.287 1208.5,672.5C 1218.55,663.821 1228.55,655.154 1238.5,646.5C 1242.16,642.521 1245.32,638.188 1248,633.5C 1252.48,624.539 1257.48,615.872 1263,607.5C 1270.98,590.539 1279.15,573.706 1287.5,557C 1286.4,554.599 1286.23,552.099 1287,549.5C 1291.36,543.914 1293.19,537.581 1292.5,530.5C 1292.5,526.833 1292.5,523.167 1292.5,519.5 Z"/></g>
<g><path style="opacity:0.961" fill="#848484" d="M 1163.5,560.5 C 1162.47,564.632 1161.14,568.632 1159.5,572.5C 1159.62,567.961 1160.96,563.961 1163.5,560.5 Z"/></g>
<g><path style="opacity:0.137" fill="#555555" d="M 1117.5,574.5 C 1117.74,576.898 1117.07,578.898 1115.5,580.5C 1115.59,578.214 1116.26,576.214 1117.5,574.5 Z"/></g>
<g><path style="opacity:0.671" fill="#939393" d="M 1159.5,572.5 C 1159.83,575.228 1159.16,577.562 1157.5,579.5C 1157.41,576.848 1158.08,574.515 1159.5,572.5 Z"/></g>
<g><path style="opacity:1" fill="#979797" d="M 1293.5,558.5 C 1293.4,563.03 1293.74,567.53 1294.5,572C 1294.5,574.484 1293.84,576.651 1292.5,578.5C 1291.86,583.772 1290.86,589.105 1289.5,594.5C 1283.8,600.588 1279.13,607.088 1275.5,614C 1266.46,633.813 1256.29,653.313 1245,672.5C 1237.63,681.595 1229.13,689.428 1219.5,696C 1214.54,700.818 1210.04,705.318 1206,709.5C 1202.69,712.806 1199.36,716.14 1196,719.5C 1189.39,729.777 1182.39,739.777 1175,749.5C 1174.5,747.527 1174.34,745.527 1174.5,743.5C 1175.84,737.14 1177.34,730.806 1179,724.5C 1179.7,721.524 1180.87,718.858 1182.5,716.5C 1182.34,718.527 1182.5,720.527 1183,722.5C 1187.35,716.36 1191.68,709.694 1196,702.5C 1208.97,689.188 1222.8,677.021 1237.5,666C 1239.67,663.167 1241.83,660.333 1244,657.5C 1257.35,634.322 1269.68,610.656 1281,586.5C 1284.42,580.663 1288.08,574.996 1292,569.5C 1292.18,565.644 1292.68,561.977 1293.5,558.5 Z"/></g>
<g><path style="opacity:0.553" fill="#7b7b7b" d="M 1249.5,578.5 C 1249.83,581.228 1249.16,583.562 1247.5,585.5C 1247.41,582.848 1248.08,580.515 1249.5,578.5 Z"/></g>
<g><path style="opacity:0.475" fill="#858585" d="M 1063.5,583.5 C 1063.71,586.495 1063.04,589.162 1061.5,591.5C 1061.29,588.505 1061.96,585.838 1063.5,583.5 Z"/></g>
<g><path style="opacity:0.475" fill="#797979" d="M 1113.5,587.5 C 1113.59,590.152 1112.92,592.485 1111.5,594.5C 1111.41,591.848 1112.08,589.515 1113.5,587.5 Z"/></g>
<g><path style="opacity:1" fill="#878787" d="M 1154.5,588.5 C 1154.95,591.01 1154.28,593.01 1152.5,594.5C 1152.59,592.214 1153.26,590.214 1154.5,588.5 Z"/></g>
<g><path style="opacity:0.757" fill="#7f7f7f" d="M 1059.5,598.5 C 1059.74,599.791 1059.4,600.791 1058.5,601.5C 1058.06,601.565 1057.73,601.399 1057.5,601C 1058.07,600.005 1058.73,599.172 1059.5,598.5 Z"/></g>
<g><path style="opacity:1" fill="#b9b9b9" d="M 1292.5,530.5 C 1293.19,537.581 1291.36,543.914 1287,549.5C 1286.23,552.099 1286.4,554.599 1287.5,557C 1279.15,573.706 1270.98,590.539 1263,607.5C 1257.48,615.872 1252.48,624.539 1248,633.5C 1245.32,638.188 1242.16,642.521 1238.5,646.5C 1228.55,655.154 1218.55,663.821 1208.5,672.5C 1207.68,674.287 1206.68,675.954 1205.5,677.5C 1203.6,678.639 1202.6,677.973 1202.5,675.5C 1203.17,672.167 1203.83,668.833 1204.5,665.5C 1206.8,663.599 1208.63,661.266 1210,658.5C 1210.86,654.616 1212.03,650.949 1213.5,647.5C 1213.18,649.75 1213.68,651.75 1215,653.5C 1216.8,650.949 1218.8,648.615 1221,646.5C 1230.64,640.885 1238.97,633.218 1246,623.5C 1264.58,593.317 1280.08,562.317 1292.5,530.5 Z"/></g>
<g><path style="opacity:1" fill="#bababa" d="M 1197.5,601.5 C 1196.57,605.127 1195.74,608.793 1195,612.5C 1194.28,614.879 1193.12,616.879 1191.5,618.5C 1190.83,616.181 1190.67,613.847 1191,611.5C 1192.6,608.666 1193.77,605.666 1194.5,602.5C 1195.42,601.873 1196.42,601.539 1197.5,601.5 Z"/></g>
<g><path style="opacity:0.996" fill="#868686" d="M 1292.5,578.5 C 1292.67,584.176 1292.5,589.843 1292,595.5C 1289.84,601.474 1288.01,607.474 1286.5,613.5C 1284.91,613.628 1283.58,614.295 1282.5,615.5C 1269.6,638.963 1256.43,662.297 1243,685.5C 1234.77,693.401 1226.27,700.901 1217.5,708C 1210.32,715.014 1203.32,722.181 1196.5,729.5C 1185.96,745.302 1176.46,761.302 1168,777.5C 1167.5,774.518 1167.34,771.518 1167.5,768.5C 1169.26,760.515 1171.1,752.515 1173,744.5C 1173.38,743.944 1173.88,743.611 1174.5,743.5C 1174.34,745.527 1174.5,747.527 1175,749.5C 1182.39,739.777 1189.39,729.777 1196,719.5C 1199.36,716.14 1202.69,712.806 1206,709.5C 1210.04,705.318 1214.54,700.818 1219.5,696C 1229.13,689.428 1237.63,681.595 1245,672.5C 1256.29,653.313 1266.46,633.813 1275.5,614C 1279.13,607.088 1283.8,600.588 1289.5,594.5C 1290.86,589.105 1291.86,583.772 1292.5,578.5 Z"/></g>
<g><path style="opacity:1" fill="#878787" d="M 1058.5,602.5 C 1058.74,604.898 1058.07,606.898 1056.5,608.5C 1056.26,606.102 1056.93,604.102 1058.5,602.5 Z"/></g>
<g><path style="opacity:1" fill="#939393" d="M 1146.5,604.5 C 1146.71,607.495 1146.04,610.162 1144.5,612.5C 1144.11,609.447 1144.78,606.78 1146.5,604.5 Z"/></g>
<g><path style="opacity:0.176" fill="#565656" d="M 1237.5,604.5 C 1237.71,607.495 1237.04,610.162 1235.5,612.5C 1235.57,609.572 1236.23,606.905 1237.5,604.5 Z"/></g>
<g><path style="opacity:0.999" fill="#7a7a7a" d="M 1286.5,613.5 C 1285.35,618.934 1284.35,624.267 1283.5,629.5C 1281.11,635.3 1277.77,639.8 1273.5,643C 1264.19,663.103 1252.86,682.436 1239.5,701C 1222.14,714.27 1206.97,729.103 1194,745.5C 1184.44,762.841 1176.44,780.841 1170,799.5C 1169.86,814.587 1174.19,828.254 1183,840.5C 1183.5,842.81 1183.66,845.143 1183.5,847.5C 1183.77,860.905 1179.27,862.905 1170,853.5C 1167.47,843.361 1164.64,833.527 1161.5,824C 1162.37,819.966 1162.03,815.966 1160.5,812C 1163.11,807.484 1163.11,802.984 1160.5,798.5C 1162.19,790.891 1164.19,783.391 1166.5,776C 1165.41,773.936 1165.24,771.769 1166,769.5C 1166.38,768.944 1166.88,768.611 1167.5,768.5C 1167.34,771.518 1167.5,774.518 1168,777.5C 1176.46,761.302 1185.96,745.302 1196.5,729.5C 1203.32,722.181 1210.32,715.014 1217.5,708C 1226.27,700.901 1234.77,693.401 1243,685.5C 1256.43,662.297 1269.6,638.963 1282.5,615.5C 1283.58,614.295 1284.91,613.628 1286.5,613.5 Z"/></g>
<g><path style="opacity:0.02" fill="#474747" d="M 1188.5,627.5 C 1188.84,629.483 1188.18,630.817 1186.5,631.5C 1186.99,630.005 1187.66,628.671 1188.5,627.5 Z"/></g>
<g><path style="opacity:0.428" fill="#747474" d="M 310.5,596.5 C 310.833,596.5 311.167,596.5 311.5,596.5C 311.227,617.501 310.894,638.501 310.5,659.5C 310.167,659.5 309.833,659.5 309.5,659.5C 309.293,638.486 309.626,617.486 310.5,596.5 Z"/></g>
<g><path style="opacity:0.428" fill="#757575" d="M 2171.5,596.5 C 2171.83,596.5 2172.17,596.5 2172.5,596.5C 2172.23,617.501 2171.89,638.501 2171.5,659.5C 2171.17,659.5 2170.83,659.5 2170.5,659.5C 2170.29,638.486 2170.63,617.486 2171.5,596.5 Z"/></g>
<g><path style="opacity:1" fill="#a8a8a8" d="M 1140.5,623.5 C 1140.37,628.151 1139.37,632.485 1137.5,636.5C 1137.12,631.739 1138.12,627.405 1140.5,623.5 Z"/></g>
<g><path style="opacity:1" fill="#858585" d="M 1223.5,632.5 C 1223.46,636.236 1222.13,639.236 1219.5,641.5C 1220.08,638.053 1221.42,635.053 1223.5,632.5 Z"/></g>
<g><path style="opacity:0.999" fill="#6e6e6e" d="M 1283.5,629.5 C 1284.68,631.103 1284.51,632.436 1283,633.5C 1281.58,644.628 1277.75,654.628 1271.5,663.5C 1262.53,678.03 1253.36,692.697 1244,707.5C 1241.33,711.34 1238.16,714.673 1234.5,717.5C 1202.86,739.031 1184.53,768.365 1179.5,805.5C 1179.69,813.698 1182.02,821.198 1186.5,828C 1186.5,830.976 1186.16,834.143 1185.5,837.5C 1185.45,841.078 1184.78,844.411 1183.5,847.5C 1183.66,845.143 1183.5,842.81 1183,840.5C 1174.19,828.254 1169.86,814.587 1170,799.5C 1176.44,780.841 1184.44,762.841 1194,745.5C 1206.97,729.103 1222.14,714.27 1239.5,701C 1252.86,682.436 1264.19,663.103 1273.5,643C 1277.77,639.8 1281.11,635.3 1283.5,629.5 Z"/></g>
<g><path style="opacity:0.176" fill="#4d4d4d" d="M 1051.5,653.5 C 1051.17,656.833 1050.83,660.167 1050.5,663.5C 1049.14,660.041 1049.47,656.708 1051.5,653.5 Z"/></g>
<g><path style="opacity:0.195" fill="#4c4c4c" d="M 2190.5,597.5 C 2191.33,601.982 2191.83,606.649 2192,611.5C 2192.5,641.832 2192.67,672.165 2192.5,702.5C 2191.54,667.668 2190.88,632.668 2190.5,597.5 Z"/></g>
<g><path style="opacity:0.196" fill="#4c4c4c" d="M 329.5,597.5 C 330.326,601.982 330.826,606.649 331,611.5C 331.5,641.832 331.667,672.165 331.5,702.5C 330.543,667.668 329.876,632.668 329.5,597.5 Z"/></g>
<g><path style="opacity:1" fill="#b1b1b1" d="M 1132.5,663.5 C 1132.14,667.509 1131.64,671.509 1131,675.5C 1130.72,676.416 1130.22,677.082 1129.5,677.5C 1129.58,672.523 1130.58,667.857 1132.5,663.5 Z"/></g>
<g><path style="opacity:1" fill="#6b6b6b" d="M 1204.5,665.5 C 1203.83,668.833 1203.17,672.167 1202.5,675.5C 1201.9,676.9 1200.9,677.9 1199.5,678.5C 1200.42,673.782 1202.08,669.449 1204.5,665.5 Z"/></g>
<g><path style="opacity:0.388" fill="#6f6f6f" d="M 1169.5,677.5 C 1169.41,679.786 1168.74,681.786 1167.5,683.5C 1167.26,681.102 1167.93,679.102 1169.5,677.5 Z"/></g>
<g><path style="opacity:0.835" fill="#7b7b7b" d="M 1094.5,681.5 C 1097.17,683.167 1097.17,684.833 1094.5,686.5C 1094.5,684.833 1094.5,683.167 1094.5,681.5 Z"/></g>
<g><path style="opacity:0.106" fill="#464646" d="M 1196.5,681.5 C 1195.49,683.544 1194.49,685.544 1193.5,687.5C 1193.02,684.687 1194.02,682.687 1196.5,681.5 Z"/></g>
<g><path style="opacity:1" fill="#d8d8d8" d="M 1172.5,670.5 C 1171.91,673.063 1170.91,675.396 1169.5,677.5C 1167.93,679.102 1167.26,681.102 1167.5,683.5C 1167.89,686.553 1167.22,689.22 1165.5,691.5C 1163.66,693.279 1162.99,695.612 1163.5,698.5C 1163.77,700.099 1163.43,701.432 1162.5,702.5C 1161.01,704.116 1160.01,706.116 1159.5,708.5C 1158.01,710.271 1156.18,711.604 1154,712.5C 1147.13,723.537 1139.3,733.87 1130.5,743.5C 1129.58,744.127 1128.58,744.461 1127.5,744.5C 1127.5,742.833 1127.5,741.167 1127.5,739.5C 1127.5,739.167 1127.5,738.833 1127.5,738.5C 1128.83,734.167 1128.83,729.833 1127.5,725.5C 1127.5,725.167 1127.5,724.833 1127.5,724.5C 1132.11,721.069 1136.61,717.403 1141,713.5C 1151.01,698.114 1161.51,683.781 1172.5,670.5 Z"/></g>
<g><path style="opacity:0.082" fill="#4f4f4f" d="M 1127.5,686.5 C 1127.5,689.5 1127.5,692.5 1127.5,695.5C 1126.66,693.513 1125.99,691.346 1125.5,689C 1125.64,687.699 1126.31,686.866 1127.5,686.5 Z"/></g>
<g><path style="opacity:0.639" fill="#7f7f7f" d="M 1165.5,691.5 C 1165.81,693.938 1165.15,696.271 1163.5,698.5C 1162.99,695.612 1163.66,693.279 1165.5,691.5 Z"/></g>
<g><path style="opacity:0.994" fill="#5f5f5f" d="M 1271.5,663.5 C 1269.51,671.129 1267.34,678.796 1265,686.5C 1259.86,693.003 1256.19,700.337 1254,708.5C 1248.87,713.023 1245.71,718.689 1244.5,725.5C 1243.24,726.382 1242.07,727.382 1241,728.5C 1239.29,733.192 1237.12,737.525 1234.5,741.5C 1231.98,741.755 1229.65,742.589 1227.5,744C 1227.67,745.117 1228,746.284 1228.5,747.5C 1227.27,748.59 1226.44,749.924 1226,751.5C 1224.8,750.529 1224.3,749.529 1224.5,748.5C 1222.17,750 1219.83,751.5 1217.5,753C 1218.62,753.249 1219.62,753.749 1220.5,754.5C 1220.06,755.506 1219.4,755.506 1218.5,754.5C 1217.5,755 1216.5,755.5 1215.5,756C 1206.93,767.311 1200.59,779.811 1196.5,793.5C 1197.44,795.47 1196.78,796.97 1194.5,798C 1195.31,798.308 1195.97,798.808 1196.5,799.5C 1195.51,803.105 1194.84,806.772 1194.5,810.5C 1191.67,819.652 1188.67,828.652 1185.5,837.5C 1186.16,834.143 1186.5,830.976 1186.5,828C 1182.02,821.198 1179.69,813.698 1179.5,805.5C 1184.53,768.365 1202.86,739.031 1234.5,717.5C 1238.16,714.673 1241.33,711.34 1244,707.5C 1253.36,692.697 1262.53,678.03 1271.5,663.5 Z"/></g>
<g><path style="opacity:1" fill="#adadad" d="M 1094.5,687.5 C 1093.2,693.325 1093.2,699.159 1094.5,705C 1094.5,707.484 1093.84,709.651 1092.5,711.5C 1092.5,705.5 1092.5,699.5 1092.5,693.5C 1092.59,691.214 1093.26,689.214 1094.5,687.5 Z"/></g>
<g><path style="opacity:1" fill="#7b7b7b" d="M 309.5,659.5 C 309.833,659.5 310.167,659.5 310.5,659.5C 310.5,680.5 310.5,701.5 310.5,722.5C 309.67,732.325 309.17,742.325 309,752.5C 308.5,783.498 308.333,814.498 308.5,845.5C 308.331,883.005 307.664,920.338 306.5,957.5C 306.5,943.5 306.5,929.5 306.5,915.5C 306.95,829.997 307.95,744.663 309.5,659.5 Z"/></g>
<g><path style="opacity:1" fill="#ececec" d="M 1092.5,693.5 C 1092.5,699.5 1092.5,705.5 1092.5,711.5C 1091.52,714.625 1091.19,717.958 1091.5,721.5C 1091.42,722.75 1090.76,723.583 1089.5,724C 1090.17,724.333 1090.83,724.667 1091.5,725C 1083.4,730.103 1076.23,736.27 1070,743.5C 1068.95,741.893 1067.45,741.227 1065.5,741.5C 1065.5,741.167 1065.5,740.833 1065.5,740.5C 1065.28,738.336 1064.28,736.67 1062.5,735.5C 1060.02,729.243 1058.35,722.909 1057.5,716.5C 1059.83,717.655 1060.99,719.655 1061,722.5C 1062.71,721.692 1063.54,720.359 1063.5,718.5C 1064.55,718.649 1065.55,718.483 1066.5,718C 1074.68,711.382 1082.84,705.548 1091,700.5C 1091.19,697.964 1091.69,695.631 1092.5,693.5 Z"/></g>
<g><path style="opacity:1" fill="#787878" d="M 2170.5,659.5 C 2170.83,659.5 2171.17,659.5 2171.5,659.5C 2171.5,680.5 2171.5,701.5 2171.5,722.5C 2170.67,732.325 2170.17,742.325 2170,752.5C 2169.5,783.498 2169.33,814.498 2169.5,845.5C 2169.31,883.004 2168.65,920.338 2167.5,957.5C 2167.5,943.5 2167.5,929.5 2167.5,915.5C 2167.95,829.997 2168.95,744.663 2170.5,659.5 Z"/></g>
<g><path style="opacity:0.19" fill="#616161" d="M 1054.5,704.5 C 1056.22,706.78 1056.89,709.447 1056.5,712.5C 1055.47,710.039 1054.8,707.373 1054.5,704.5 Z"/></g>
<g><path style="opacity:0.125" fill="#494949" d="M 1127.5,708.5 C 1127.5,710.167 1127.5,711.833 1127.5,713.5C 1126.57,714.568 1126.23,715.901 1126.5,717.5C 1125.38,714.409 1125.71,711.409 1127.5,708.5 Z"/></g>
<g><path style="opacity:0.549" fill="#898989" d="M 1092.5,711.5 C 1092.54,716.193 1092.87,720.859 1093.5,725.5C 1092.83,724.167 1092.17,722.833 1091.5,721.5C 1091.19,717.958 1091.52,714.625 1092.5,711.5 Z"/></g>
<g><path style="opacity:0.998" fill="#b8b8b8" d="M 1162.5,702.5 C 1160.79,712.897 1158.12,722.564 1154.5,731.5C 1154.68,737.142 1152.52,741.809 1148,745.5C 1144.35,752.135 1140.68,758.802 1137,765.5C 1135.91,767.349 1134.57,769.016 1133,770.5C 1132.29,769.619 1131.46,768.953 1130.5,768.5C 1129.91,761.229 1128.91,753.896 1127.5,746.5C 1127.5,745.833 1127.5,745.167 1127.5,744.5C 1128.58,744.461 1129.58,744.127 1130.5,743.5C 1139.3,733.87 1147.13,723.537 1154,712.5C 1156.18,711.604 1158.01,710.271 1159.5,708.5C 1160.01,706.116 1161.01,704.116 1162.5,702.5 Z"/></g>
<g><path style="opacity:0.694" fill="#949494" d="M 1127.5,725.5 C 1128.83,729.833 1128.83,734.167 1127.5,738.5C 1127.45,734.227 1127.45,729.894 1127.5,725.5 Z"/></g>
<g><path style="opacity:1" fill="#fefefe" d="M 839.5,729.5 C 905.252,728.882 967.252,743.715 1025.5,774C 1093.16,813.093 1136.82,870.593 1156.5,946.5C 1156.41,949.152 1157.08,951.485 1158.5,953.5C 1161.02,961.978 1162.69,970.644 1163.5,979.5C 1163.36,984.414 1164.03,989.081 1165.5,993.5C 1166.98,1000.28 1167.65,1007.28 1167.5,1014.5C 1167.69,1036.85 1167.35,1059.18 1166.5,1081.5C 1160.6,1161.47 1127.93,1227.97 1068.5,1281C 1021.86,1317.91 968.863,1340.91 909.5,1350C 894.238,1352.33 878.904,1353.99 863.5,1355C 806.501,1355.5 749.501,1355.67 692.5,1355.5C 691.5,1489.33 691.167,1623.33 691.5,1757.5C 661.5,1757.5 631.5,1757.5 601.5,1757.5C 598.833,1757.5 596.167,1757.5 593.5,1757.5C 525.5,1757.5 457.5,1757.5 389.5,1757.5C 389.5,1414.83 389.5,1072.17 389.5,729.5C 539.5,729.5 689.5,729.5 839.5,729.5 Z M 692.5,837.5 C 697.482,838.053 702.482,838.387 707.5,838.5C 710.946,839.687 714.613,840.354 718.5,840.5C 726.803,842.294 735.137,843.961 743.5,845.5C 745.515,846.924 747.848,847.59 750.5,847.5C 785.766,857.549 815.266,876.549 839,904.5C 844.788,912.453 849.954,920.786 854.5,929.5C 854.932,930.71 855.599,931.71 856.5,932.5C 863.83,948.157 869.163,964.49 872.5,981.5C 872.927,984.01 873.593,986.343 874.5,988.5C 875.844,1000.97 877.177,1013.31 878.5,1025.5C 878.388,1033.32 878.388,1041.32 878.5,1049.5C 877.709,1060.49 877.042,1071.49 876.5,1082.5C 875.383,1086.29 874.717,1090.29 874.5,1094.5C 862.543,1167.62 821.21,1215.12 750.5,1237C 741.843,1239.36 733.177,1241.53 724.5,1243.5C 718.31,1244.14 712.31,1245.14 706.5,1246.5C 703.119,1246.46 699.786,1246.79 696.5,1247.5C 695.167,1247.5 693.833,1247.5 692.5,1247.5C 692.5,1110.83 692.5,974.167 692.5,837.5 Z M 532.5,904.5 C 532.174,912.684 532.508,920.684 533.5,928.5C 534.927,941.456 535.593,954.456 535.5,967.5C 536.427,988.99 537.427,1010.32 538.5,1031.5C 536.893,1037.33 537.227,1043 539.5,1048.5C 539.083,1052.83 538.749,1056.83 538.5,1060.5C 539.137,1068.3 539.804,1075.96 540.5,1083.5C 539.881,1100.15 539.881,1117.15 540.5,1134.5C 540.333,1149.84 540.5,1165.17 541,1180.5C 541.383,1181.06 541.883,1181.39 542.5,1181.5C 542.5,1227.83 542.5,1274.17 542.5,1320.5C 541.883,1320.61 541.383,1320.94 541,1321.5C 540.5,1336.16 540.333,1350.83 540.5,1365.5C 539.846,1383.32 539.846,1400.32 540.5,1416.5C 539.818,1423.57 539.151,1430.73 538.5,1438C 538.264,1442.22 538.597,1446.55 539.5,1451C 538.002,1453.42 537.335,1456.08 537.5,1459C 537.66,1470.69 537.66,1482.52 537.5,1494.5C 537.5,1499.17 537.5,1503.83 537.5,1508.5C 536.883,1508.61 536.383,1508.94 536,1509.5C 535.5,1516.49 535.334,1523.49 535.5,1530.5C 535.5,1537.5 535.5,1544.5 535.5,1551.5C 534.253,1557.63 533.586,1563.96 533.5,1570.5C 532.671,1577.99 532.171,1585.66 532,1593.5C 530.977,1594.6 530.477,1595.93 530.5,1597.5C 530.624,1606.68 530.624,1616.01 530.5,1625.5C 529.527,1627.95 529.194,1630.61 529.5,1633.5C 528.833,1639.83 528.167,1646.17 527.5,1652.5C 527.379,1646.26 527.046,1640.26 526.5,1634.5C 526.061,1624 525.395,1613.67 524.5,1603.5C 524.806,1600.61 524.473,1597.95 523.5,1595.5C 522.088,1570.8 520.754,1546.14 519.5,1521.5C 519.01,1504 518.344,1486.67 517.5,1469.5C 517.487,1459.31 516.82,1449.31 515.5,1439.5C 515.827,1403.65 515.16,1367.99 513.5,1332.5C 513.326,1265.16 513.66,1197.83 514.5,1130.5C 515.318,1102 515.985,1073.33 516.5,1044.5C 517.95,1018.33 519.283,991.992 520.5,965.5C 521.586,944.72 522.586,924.054 523.5,903.5C 525.272,893.057 525.938,882.39 525.5,871.5C 527.031,863.051 527.864,854.384 528,845.5C 528.268,853.187 528.768,860.853 529.5,868.5C 528.667,870.5 528.834,872.166 530,873.5C 530.333,883.5 530.667,893.5 531,903.5C 531.383,904.056 531.883,904.389 532.5,904.5 Z"/></g>
<g><path style="opacity:1" fill="#6e6e6e" d="M 1094.5,727.5 C 1096.7,729.475 1097.03,731.808 1095.5,734.5C 1097.13,740.05 1097.79,745.716 1097.5,751.5C 1097.17,751.5 1096.83,751.5 1096.5,751.5C 1095.7,743.513 1095.04,735.513 1094.5,727.5 Z"/></g>
<g><path style="opacity:1" fill="#939393" d="M 1062.5,735.5 C 1064.28,736.67 1065.28,738.336 1065.5,740.5C 1063.27,739.599 1062.27,737.933 1062.5,735.5 Z"/></g>
<g><path style="opacity:1" fill="#6d6d6d" d="M 1127.5,739.5 C 1127.5,741.167 1127.5,742.833 1127.5,744.5C 1127.5,745.167 1127.5,745.833 1127.5,746.5C 1126.05,745.866 1125.39,744.699 1125.5,743C 1125.39,741.301 1126.05,740.134 1127.5,739.5 Z"/></g>
<g><path style="opacity:0.427" fill="#5f5f5f" d="M 1068.5,745.5 C 1069.74,747.214 1070.41,749.214 1070.5,751.5C 1068.93,749.898 1068.26,747.898 1068.5,745.5 Z"/></g>
<g><path style="opacity:1" fill="#d6d6d6" d="M 1091.5,721.5 C 1092.17,722.833 1092.83,724.167 1093.5,725.5C 1094.34,725.842 1094.67,726.508 1094.5,727.5C 1095.04,735.513 1095.7,743.513 1096.5,751.5C 1096.65,752.552 1096.48,753.552 1096,754.5C 1091.51,759.486 1087.51,764.819 1084,770.5C 1083.52,769.552 1083.35,768.552 1083.5,767.5C 1082.17,767.5 1080.83,767.5 1079.5,767.5C 1079.74,764.966 1078.74,763.3 1076.5,762.5C 1074.25,759.001 1072.25,755.335 1070.5,751.5C 1070.41,749.214 1069.74,747.214 1068.5,745.5C 1067.51,744.205 1066.51,742.872 1065.5,741.5C 1067.45,741.227 1068.95,741.893 1070,743.5C 1076.23,736.27 1083.4,730.103 1091.5,725C 1090.83,724.667 1090.17,724.333 1089.5,724C 1090.76,723.583 1091.42,722.75 1091.5,721.5 Z"/></g>
<g><path style="opacity:0.99" fill="#505050" d="M 1234.5,741.5 C 1231.35,745.786 1228.68,750.453 1226.5,755.5C 1221.38,758.74 1218.54,763.407 1218,769.5C 1217,770.5 1216,771.5 1215,772.5C 1207.85,785.132 1201.02,797.799 1194.5,810.5C 1194.84,806.772 1195.51,803.105 1196.5,799.5C 1195.97,798.808 1195.31,798.308 1194.5,798C 1196.78,796.97 1197.44,795.47 1196.5,793.5C 1200.59,779.811 1206.93,767.311 1215.5,756C 1216.5,755.5 1217.5,755 1218.5,754.5C 1219.4,755.506 1220.06,755.506 1220.5,754.5C 1219.62,753.749 1218.62,753.249 1217.5,753C 1219.83,751.5 1222.17,750 1224.5,748.5C 1224.3,749.529 1224.8,750.529 1226,751.5C 1226.44,749.924 1227.27,748.59 1228.5,747.5C 1228,746.284 1227.67,745.117 1227.5,744C 1229.65,742.589 1231.98,741.755 1234.5,741.5 Z"/></g>
<g><path style="opacity:1" fill="#808080" d="M 1076.5,762.5 C 1078.74,763.3 1079.74,764.966 1079.5,767.5C 1077.27,766.599 1076.27,764.933 1076.5,762.5 Z"/></g>
<g><path style="opacity:1" fill="#bcbcbc" d="M 1096.5,751.5 C 1096.83,751.5 1097.17,751.5 1097.5,751.5C 1100.46,757.417 1102.46,763.417 1103.5,769.5C 1103.26,771.898 1103.93,773.898 1105.5,775.5C 1105.5,775.833 1105.5,776.167 1105.5,776.5C 1105.47,779.199 1106.13,781.699 1107.5,784C 1105.11,784.691 1105.11,785.691 1107.5,787C 1105.83,788.667 1104.17,790.333 1102.5,792C 1103.6,793.131 1103.27,793.965 1101.5,794.5C 1100.27,793.349 1100.27,792.183 1101.5,791C 1100.26,790.689 1099.26,791.189 1098.5,792.5C 1097.86,791.007 1096.86,790.007 1095.5,789.5C 1089.19,782.875 1083.85,775.542 1079.5,767.5C 1080.83,767.5 1082.17,767.5 1083.5,767.5C 1083.35,768.552 1083.52,769.552 1084,770.5C 1087.51,764.819 1091.51,759.486 1096,754.5C 1096.48,753.552 1096.65,752.552 1096.5,751.5 Z"/></g>
<g><path style="opacity:0.992" fill="#989899" d="M 1154.5,731.5 C 1154.57,739.202 1154.07,746.869 1153,754.5C 1151.1,757.923 1150.26,761.59 1150.5,765.5C 1150.31,770.595 1148.47,774.928 1145,778.5C 1142.18,782.968 1139.85,787.634 1138,792.5C 1137.26,790.681 1136.09,789.348 1134.5,788.5C 1134.32,786.325 1133.65,784.325 1132.5,782.5C 1133.44,780.528 1133.78,778.695 1133.5,777C 1131.42,774.581 1130.42,771.747 1130.5,768.5C 1131.46,768.953 1132.29,769.619 1133,770.5C 1134.57,769.016 1135.91,767.349 1137,765.5C 1140.68,758.802 1144.35,752.135 1148,745.5C 1152.52,741.809 1154.68,737.142 1154.5,731.5 Z"/></g>
<g><path style="opacity:0.31" fill="#5f5f5f" d="M 1103.5,769.5 C 1105.07,771.102 1105.74,773.102 1105.5,775.5C 1103.93,773.898 1103.26,771.898 1103.5,769.5 Z"/></g>
<g><path style="opacity:0.995" fill="#848485" d="M 1150.5,765.5 C 1151.72,767.847 1151.72,770.347 1150.5,773C 1151.21,775.62 1152.21,778.12 1153.5,780.5C 1151.8,783.446 1150.8,786.613 1150.5,790C 1151.71,795.501 1151.71,801.001 1150.5,806.5C 1148.86,808.081 1146.86,808.747 1144.5,808.5C 1138.7,803.143 1135.37,796.476 1134.5,788.5C 1136.09,789.348 1137.26,790.681 1138,792.5C 1139.85,787.634 1142.18,782.968 1145,778.5C 1148.47,774.928 1150.31,770.595 1150.5,765.5 Z"/></g>
<g><path style="opacity:1" fill="#9d9d9d" d="M 1105.5,776.5 C 1111.03,784.249 1114.37,792.915 1115.5,802.5C 1115.5,803.5 1115.5,804.5 1115.5,805.5C 1114.17,805.5 1112.83,805.5 1111.5,805.5C 1103.95,802.398 1098.61,797.064 1095.5,789.5C 1096.86,790.007 1097.86,791.007 1098.5,792.5C 1099.26,791.189 1100.26,790.689 1101.5,791C 1100.27,792.183 1100.27,793.349 1101.5,794.5C 1103.27,793.965 1103.6,793.131 1102.5,792C 1104.17,790.333 1105.83,788.667 1107.5,787C 1105.11,785.691 1105.11,784.691 1107.5,784C 1106.13,781.699 1105.47,779.199 1105.5,776.5 Z"/></g>
<g><path style="opacity:1" fill="#dbdbdb" d="M 310.5,722.5 C 310.723,763.677 310.057,804.677 308.5,845.5C 308.333,814.498 308.5,783.498 309,752.5C 309.17,742.325 309.67,732.325 310.5,722.5 Z"/></g>
<g><path style="opacity:1" fill="#dbdbdb" d="M 2171.5,722.5 C 2171.72,763.677 2171.06,804.677 2169.5,845.5C 2169.33,814.498 2169.5,783.498 2170,752.5C 2170.17,742.325 2170.67,732.325 2171.5,722.5 Z"/></g>
<g><path style="opacity:0.722" fill="#3d3d3d" d="M 1115.5,802.5 C 1119.09,804.702 1120.43,808.035 1119.5,812.5C 1116.03,811.098 1113.37,808.764 1111.5,805.5C 1112.83,805.5 1114.17,805.5 1115.5,805.5C 1115.5,804.5 1115.5,803.5 1115.5,802.5 Z"/></g>
<g><path style="opacity:0.02" fill="#2a2a2a" d="M 1150.5,806.5 C 1149.71,811.913 1147.71,812.58 1144.5,808.5C 1146.86,808.747 1148.86,808.081 1150.5,806.5 Z"/></g>
<g><path style="opacity:0.008" fill="#202120" d="M 1119.5,812.5 C 1120.83,813.167 1120.83,813.167 1119.5,812.5 Z"/></g>
<g><path style="opacity:1" fill="#a1a1a2" d="M 707.5,838.5 C 711.489,838.116 715.155,838.783 718.5,840.5C 714.613,840.354 710.946,839.687 707.5,838.5 Z"/></g>
<g><path style="opacity:0.631" fill="#c0c0c0" d="M 692.5,837.5 C 692.5,974.167 692.5,1110.83 692.5,1247.5C 693.833,1247.5 695.167,1247.5 696.5,1247.5C 695.081,1248.45 693.415,1248.78 691.5,1248.5C 691.167,1111.33 691.5,974.332 692.5,837.5 Z"/></g>
<g><path style="opacity:0.733" fill="#939394" d="M 743.5,845.5 C 746.152,845.41 748.485,846.076 750.5,847.5C 747.848,847.59 745.515,846.924 743.5,845.5 Z"/></g>
<g><path style="opacity:0.294" fill="#565656" d="M 529.5,857.5 C 529.608,862.71 530.275,867.71 531.5,872.5C 531.5,877.833 531.5,883.167 531.5,888.5C 531.833,893.833 532.167,899.167 532.5,904.5C 531.883,904.389 531.383,904.056 531,903.5C 530.667,893.5 530.333,883.5 530,873.5C 528.834,872.166 528.667,870.5 529.5,868.5C 528.768,860.853 528.268,853.187 528,845.5C 527.864,854.384 527.031,863.051 525.5,871.5C 525.5,868.833 525.5,866.167 525.5,863.5C 525.893,855.482 526.56,847.482 527.5,839.5C 529.233,845.358 529.9,851.358 529.5,857.5 Z"/></g>
<g><path style="opacity:1" fill="#a9a9a9" d="M 529.5,857.5 C 531.442,862.056 532.108,867.056 531.5,872.5C 530.275,867.71 529.608,862.71 529.5,857.5 Z"/></g>
<g><path style="opacity:1" fill="#fdfdfd" d="M 1555.5,1415.5 C 1549.35,1416.33 1543.01,1416.83 1536.5,1417C 1543.16,1417.5 1549.83,1417.67 1556.5,1417.5C 1574.73,1448.68 1585.89,1482.35 1590,1518.5C 1595.99,1565.65 1590.32,1611.31 1573,1655.5C 1551.13,1704.37 1515.63,1739.53 1466.5,1761C 1429.78,1776.76 1391.45,1786.1 1351.5,1789C 1270.27,1793.82 1189.6,1789.15 1109.5,1775C 1060.76,1765.97 1013.93,1751.14 969,1730.5C 968.333,1652.17 968.333,1573.83 969,1495.5C 986.436,1494.18 1003.94,1494.18 1021.5,1495.5C 1021.86,1521.2 1023.36,1546.87 1026,1572.5C 1028.61,1595.6 1034.94,1617.6 1045,1638.5C 1061.12,1666.27 1084.62,1684.77 1115.5,1694C 1151.92,1704.01 1188.92,1707.01 1226.5,1703C 1285.96,1693.89 1314.12,1659.39 1311,1599.5C 1307.14,1561.22 1293.14,1527.22 1269,1497.5C 1246.93,1472.76 1222.43,1450.92 1195.5,1432C 1154.44,1405.27 1114.77,1376.6 1076.5,1346C 1067.68,1338.35 1059.35,1330.18 1051.5,1321.5C 1092.83,1294.01 1125.66,1258.67 1150,1215.5C 1177.6,1246.77 1207.43,1275.6 1239.5,1302C 1281.72,1333.42 1321.22,1368.26 1358,1406.5C 1385.74,1435.93 1408.41,1468.93 1426,1505.5C 1447.98,1550.67 1451.98,1597.34 1438,1645.5C 1433.86,1656.09 1429.53,1666.42 1425,1676.5C 1466.29,1626.68 1475.63,1571.35 1453,1510.5C 1442.09,1484.01 1428.09,1459.35 1411,1436.5C 1379.27,1396.44 1343.77,1359.94 1304.5,1327C 1263.94,1295.28 1224.77,1261.78 1187,1226.5C 1177.59,1217.09 1168.92,1207.09 1161,1196.5C 1196.15,1107.8 1200.48,1017.47 1174,925.5C 1170.24,914.154 1166.07,902.988 1161.5,892C 1200.56,882.328 1240.23,878.328 1280.5,880C 1350.67,883.917 1419.34,896.251 1486.5,917C 1509.28,924.194 1531.95,931.694 1554.5,939.5C 1555.5,1018.5 1555.83,1097.5 1555.5,1176.5C 1537.83,1176.5 1520.17,1176.5 1502.5,1176.5C 1503.1,1139.76 1499.6,1103.42 1492,1067.5C 1475.66,1007.04 1436.16,973.876 1373.5,968C 1357.54,966.169 1341.54,965.502 1325.5,966C 1276.72,970.783 1246.55,996.949 1235,1044.5C 1229.78,1075.09 1235.12,1103.76 1251,1130.5C 1263.81,1152 1279.65,1171.16 1298.5,1188C 1310.5,1198 1322.5,1208 1334.5,1218C 1368.22,1242.72 1402.22,1267.05 1436.5,1291C 1463.44,1310.59 1488.61,1332.43 1512,1356.5C 1522.81,1368.8 1533.15,1381.47 1543,1394.5C 1547.69,1401.22 1551.86,1408.22 1555.5,1415.5 Z"/></g>
<g><path style="opacity:1" fill="#8e8e8e" d="M 525.5,863.5 C 525.5,866.167 525.5,868.833 525.5,871.5C 525.938,882.39 525.272,893.057 523.5,903.5C 522.833,903.5 522.167,903.5 521.5,903.5C 522.386,889.826 523.719,876.492 525.5,863.5 Z"/></g>
<g><path style="opacity:1" fill="#959595" d="M 531.5,888.5 C 533.22,890.658 534.053,893.325 534,896.5C 534.5,904.493 534.666,912.493 534.5,920.5C 534.5,923.167 534.5,925.833 534.5,928.5C 534.167,928.5 533.833,928.5 533.5,928.5C 532.508,920.684 532.174,912.684 532.5,904.5C 532.167,899.167 531.833,893.833 531.5,888.5 Z"/></g>
<g><path style="opacity:1" fill="#6f6f6f" d="M 521.5,903.5 C 522.167,903.5 522.833,903.5 523.5,903.5C 522.586,924.054 521.586,944.72 520.5,965.5C 520.167,965.5 519.833,965.5 519.5,965.5C 519.345,952.815 519.678,940.149 520.5,927.5C 521.492,919.684 521.826,911.684 521.5,903.5 Z"/></g>
<g><path style="opacity:1" fill="#b7b7b7" d="M 331.5,709.5 C 332.496,723.657 332.829,737.99 332.5,752.5C 332.372,820.503 332.705,888.503 333.5,956.5C 331.503,874.507 330.836,792.173 331.5,709.5 Z"/></g>
<g><path style="opacity:0.251" fill="#535353" d="M 332.5,752.5 C 333.348,820.335 334.181,888.335 335,956.5C 335.833,1162 335.666,1367.33 334.5,1572.5C 334.167,1572.5 333.833,1572.5 333.5,1572.5C 333.5,1546.5 333.5,1520.5 333.5,1494.5C 333.5,1315.17 333.5,1135.83 333.5,956.5C 332.705,888.503 332.372,820.503 332.5,752.5 Z"/></g>
<g><path style="opacity:0.251" fill="#555555" d="M 2193.5,752.5 C 2194.35,820.335 2195.18,888.335 2196,956.5C 2196.83,1162 2196.67,1367.33 2195.5,1572.5C 2195.17,1572.5 2194.83,1572.5 2194.5,1572.5C 2194.5,1546.5 2194.5,1520.5 2194.5,1494.5C 2194.64,1247.17 2194.31,999.832 2193.5,752.5 Z"/></g>
<g><path style="opacity:0.812" fill="#808081" d="M 854.5,929.5 C 856.048,929.821 856.715,930.821 856.5,932.5C 855.599,931.71 854.932,930.71 854.5,929.5 Z"/></g>
<g><path style="opacity:1" fill="#cfcfcf" d="M 520.5,927.5 C 519.678,940.149 519.345,952.815 519.5,965.5C 519.815,969.371 519.482,973.038 518.5,976.5C 517.848,959.799 518.515,943.466 520.5,927.5 Z"/></g>
<g><path style="opacity:1" fill="#e0e0e0" d="M 534.5,920.5 C 536.22,922.658 537.053,925.325 537,928.5C 537.355,945.175 537.855,961.842 538.5,978.5C 536.586,975.316 535.92,971.649 536.5,967.5C 536.666,957.161 536.5,946.828 536,936.5C 535.817,933.635 535.317,930.969 534.5,928.5C 534.5,925.833 534.5,923.167 534.5,920.5 Z"/></g>
<g><path style="opacity:1" fill="#8c8c8c" d="M 533.5,928.5 C 533.833,928.5 534.167,928.5 534.5,928.5C 535.317,930.969 535.817,933.635 536,936.5C 536.5,946.828 536.666,957.161 536.5,967.5C 536.167,967.5 535.833,967.5 535.5,967.5C 535.593,954.456 534.927,941.456 533.5,928.5 Z"/></g>
<g><path style="opacity:0.718" fill="#919192" d="M 1156.5,946.5 C 1157.92,948.515 1158.59,950.848 1158.5,953.5C 1157.08,951.485 1156.41,949.152 1156.5,946.5 Z"/></g>
<g><path style="opacity:0.046" fill="#484848" d="M 535.5,967.5 C 535.833,967.5 536.167,967.5 536.5,967.5C 535.92,971.649 536.586,975.316 538.5,978.5C 538.5,991.167 538.5,1003.83 538.5,1016.5C 538.5,1021.5 538.5,1026.5 538.5,1031.5C 537.427,1010.32 536.427,988.99 535.5,967.5 Z"/></g>
<g><path style="opacity:0.741" fill="#939395" d="M 872.5,981.5 C 873.117,981.611 873.617,981.944 874,982.5C 874.495,984.473 874.662,986.473 874.5,988.5C 873.593,986.343 872.927,984.01 872.5,981.5 Z"/></g>
<g><path style="opacity:1" fill="#a9a9aa" d="M 1163.5,979.5 C 1164.97,983.919 1165.64,988.586 1165.5,993.5C 1164.03,989.081 1163.36,984.414 1163.5,979.5 Z"/></g>
<g><path style="opacity:0.448" fill="#545454" d="M 519.5,965.5 C 519.833,965.5 520.167,965.5 520.5,965.5C 519.283,991.992 517.95,1018.33 516.5,1044.5C 516.5,1039.17 516.5,1033.83 516.5,1028.5C 516.924,1011 517.59,993.666 518.5,976.5C 519.482,973.038 519.815,969.371 519.5,965.5 Z"/></g>
<g><path style="opacity:0.569" fill="#bdbdbd" d="M 878.5,1025.5 C 879.833,1033.5 879.833,1041.5 878.5,1049.5C 878.388,1041.32 878.388,1033.32 878.5,1025.5 Z"/></g>
<g><path style="opacity:1" fill="#868686" d="M 516.5,1028.5 C 516.5,1033.83 516.5,1039.17 516.5,1044.5C 515.985,1073.33 515.318,1102 514.5,1130.5C 514.167,1130.5 513.833,1130.5 513.5,1130.5C 513.5,1121.5 513.5,1112.5 513.5,1103.5C 513.836,1078.32 514.836,1053.32 516.5,1028.5 Z"/></g>
<g><path style="opacity:1" fill="#bcbcbc" d="M 538.5,1016.5 C 540.285,1021.07 541.118,1026.07 541,1031.5C 541.5,1048.5 541.667,1065.5 541.5,1082.5C 541.167,1082.5 540.833,1082.5 540.5,1082.5C 540.885,1065.3 540.219,1048.3 538.5,1031.5C 538.5,1026.5 538.5,1021.5 538.5,1016.5 Z"/></g>
<g><path style="opacity:0.692" fill="#404040" d="M 538.5,1031.5 C 540.219,1048.3 540.885,1065.3 540.5,1082.5C 540.5,1082.83 540.5,1083.17 540.5,1083.5C 539.804,1075.96 539.137,1068.3 538.5,1060.5C 538.749,1056.83 539.083,1052.83 539.5,1048.5C 537.227,1043 536.893,1037.33 538.5,1031.5 Z"/></g>
<g><path style="opacity:0.694" fill="#8c8c8d" d="M 1167.5,1014.5 C 1168.17,1023.66 1168.5,1032.99 1168.5,1042.5C 1168.7,1055.7 1168.04,1068.7 1166.5,1081.5C 1167.35,1059.18 1167.69,1036.85 1167.5,1014.5 Z"/></g>
<g><path style="opacity:0.788" fill="#a2a2a2" d="M 876.5,1082.5 C 876.802,1086.79 876.136,1090.79 874.5,1094.5C 874.717,1090.29 875.383,1086.29 876.5,1082.5 Z"/></g>
<g><path style="opacity:0.49" fill="#777777" d="M 540.5,1082.5 C 540.833,1082.5 541.167,1082.5 541.5,1082.5C 541.833,1099.83 542.167,1117.17 542.5,1134.5C 541.833,1134.5 541.167,1134.5 540.5,1134.5C 539.881,1117.15 539.881,1100.15 540.5,1083.5C 540.5,1083.17 540.5,1082.83 540.5,1082.5 Z"/></g>
<g><path style="opacity:0.735" fill="#929292" d="M 839.5,729.5 C 689.5,729.5 539.5,729.5 389.5,729.5C 389.5,1072.17 389.5,1414.83 389.5,1757.5C 457.5,1757.5 525.5,1757.5 593.5,1757.5C 525.335,1758.5 457.002,1758.83 388.5,1758.5C 388.5,1415.17 388.5,1071.83 388.5,728.5C 539.001,728.167 689.334,728.5 839.5,729.5 Z"/></g>
<g><path style="opacity:0.99" fill="#4b4b4b" d="M 540.5,1134.5 C 541.167,1134.5 541.833,1134.5 542.5,1134.5C 542.5,1150.17 542.5,1165.83 542.5,1181.5C 541.883,1181.39 541.383,1181.06 541,1180.5C 540.5,1165.17 540.333,1149.84 540.5,1134.5 Z"/></g>
<g><path style="opacity:1" fill="#e3e3e3" d="M 513.5,1103.5 C 513.5,1112.5 513.5,1121.5 513.5,1130.5C 512.167,1210.17 512.167,1289.83 513.5,1369.5C 513.5,1378.5 513.5,1387.5 513.5,1396.5C 512.167,1348 511.5,1299.17 511.5,1250C 511.5,1200.83 512.167,1152 513.5,1103.5 Z"/></g>
<g><path style="opacity:0.996" fill="#eeeeee" d="M 1633.5,1215.5 C 1652.67,1212.63 1670,1216.79 1685.5,1228C 1699.88,1244.05 1704.04,1262.55 1698,1283.5C 1690.17,1304.35 1675.33,1317.18 1653.5,1322C 1608.89,1325.72 1587.39,1305.22 1589,1260.5C 1593.33,1235 1608.16,1220 1633.5,1215.5 Z M 1632.5,1222.5 C 1657.57,1218.8 1674.07,1228.8 1682,1252.5C 1685.16,1265.56 1684.83,1278.56 1681,1291.5C 1673.13,1311.15 1658.63,1318.99 1637.5,1315C 1621.19,1310.6 1611.02,1300.1 1607,1283.5C 1602.01,1266.2 1604.01,1249.87 1613,1234.5C 1618.59,1228.8 1625.09,1224.8 1632.5,1222.5 Z"/></g>
<g><path style="opacity:1" fill="#ededed" d="M 1972.5,1215.5 C 1990.97,1213.92 2008.97,1216.09 2026.5,1222C 2027.06,1222.72 2027.39,1223.56 2027.5,1224.5C 2026.21,1231.13 2025.21,1237.8 2024.5,1244.5C 2022.83,1244.5 2021.17,1244.5 2019.5,1244.5C 2019.66,1241.48 2019.5,1238.48 2019,1235.5C 2018.84,1233.32 2018,1231.49 2016.5,1230C 2001.26,1222.42 1985.26,1220.42 1968.5,1224C 1954.57,1228.26 1945.73,1237.43 1942,1251.5C 1936.99,1271.84 1941.83,1289.34 1956.5,1304C 1968.78,1312.86 1982.44,1315.86 1997.5,1313C 2002.35,1312.29 2007.02,1310.95 2011.5,1309C 2012.65,1301.25 2012.81,1293.41 2012,1285.5C 2006.64,1284.01 2001.14,1283.18 1995.5,1283C 1994.59,1281.3 1994.26,1279.47 1994.5,1277.5C 2007.17,1277.5 2019.83,1277.5 2032.5,1277.5C 2032.66,1279.2 2032.49,1280.87 2032,1282.5C 2028.19,1284.22 2026.53,1287.22 2027,1291.5C 2026.93,1299.21 2026.77,1306.87 2026.5,1314.5C 2007.8,1321.72 1988.46,1324.22 1968.5,1322C 1934.99,1313.51 1920.49,1292.01 1925,1257.5C 1931.77,1233.21 1947.6,1219.21 1972.5,1215.5 Z"/></g>
<g><path style="opacity:1" fill="#ebebeb" d="M 1504.5,1216.5 C 1519.5,1216.5 1534.5,1216.5 1549.5,1216.5C 1549.5,1218.17 1549.5,1219.83 1549.5,1221.5C 1545.06,1221.21 1540.73,1221.71 1536.5,1223C 1535.77,1224.4 1535.27,1225.9 1535,1227.5C 1534.5,1256.16 1534.33,1284.83 1534.5,1313.5C 1549.91,1314 1565.25,1313.34 1580.5,1311.5C 1581.99,1305.87 1583.32,1300.21 1584.5,1294.5C 1586.6,1294.2 1588.6,1294.53 1590.5,1295.5C 1589.35,1303.72 1588.01,1311.89 1586.5,1320C 1561.54,1321.45 1536.54,1321.95 1511.5,1321.5C 1511.34,1320.13 1511.51,1318.79 1512,1317.5C 1515.32,1316.03 1517.65,1313.7 1519,1310.5C 1519.67,1282.17 1519.67,1253.83 1519,1225.5C 1518.63,1224.58 1518.13,1223.75 1517.5,1223C 1513.25,1221.81 1508.92,1221.31 1504.5,1221.5C 1504.5,1219.83 1504.5,1218.17 1504.5,1216.5 Z"/></g>
<g><path style="opacity:1" fill="#ececec" d="M 1904.5,1302.5 C 1904.56,1303.04 1904.89,1303.38 1905.5,1303.5C 1906.83,1282.34 1906.83,1261.34 1905.5,1240.5C 1905.93,1235 1905.26,1229.66 1903.5,1224.5C 1899.65,1223.02 1895.65,1222.18 1891.5,1222C 1890.59,1220.3 1890.26,1218.47 1890.5,1216.5C 1902.83,1216.5 1915.17,1216.5 1927.5,1216.5C 1927.5,1218.17 1927.5,1219.83 1927.5,1221.5C 1923.78,1221.56 1920.11,1222.06 1916.5,1223C 1915.3,1223.9 1914.47,1225.07 1914,1226.5C 1913.24,1258.51 1913.41,1290.51 1914.5,1322.5C 1905.82,1323.61 1898.99,1320.61 1894,1313.5C 1872.92,1287.65 1852.08,1261.65 1831.5,1235.5C 1831.22,1234.71 1830.72,1234.04 1830,1233.5C 1829.17,1258 1829.34,1282.34 1830.5,1306.5C 1830.84,1308.85 1831.34,1311.19 1832,1313.5C 1835.6,1315.13 1839.44,1315.96 1843.5,1316C 1844.41,1317.7 1844.74,1319.53 1844.5,1321.5C 1832.5,1321.5 1820.5,1321.5 1808.5,1321.5C 1808.5,1319.83 1808.5,1318.17 1808.5,1316.5C 1813.03,1316.7 1817.2,1315.7 1821,1313.5C 1822.59,1285.19 1822.92,1256.86 1822,1228.5C 1821.65,1226.15 1820.49,1224.32 1818.5,1223C 1812.17,1221.08 1805.84,1221.08 1799.5,1223C 1798.87,1223.75 1798.37,1224.58 1798,1225.5C 1796.71,1246.78 1796.04,1268.12 1796,1289.5C 1794.95,1308.22 1785.12,1319.05 1766.5,1322C 1754.27,1323.37 1742.27,1322.37 1730.5,1319C 1718.26,1314.05 1712.43,1304.88 1713,1291.5C 1712.67,1269.17 1712.33,1246.83 1712,1224.5C 1707.84,1222.38 1703.34,1221.38 1698.5,1221.5C 1698.5,1219.83 1698.5,1218.17 1698.5,1216.5C 1713.17,1216.5 1727.83,1216.5 1742.5,1216.5C 1742.5,1218.17 1742.5,1219.83 1742.5,1221.5C 1737.66,1221.38 1733.16,1222.38 1729,1224.5C 1727,1248.5 1727,1272.5 1729,1296.5C 1731.65,1305.15 1737.49,1310.32 1746.5,1312C 1758.42,1313.9 1769.76,1312.23 1780.5,1307C 1783.93,1303.9 1786.1,1300.06 1787,1295.5C 1788.6,1273.2 1788.93,1250.87 1788,1228.5C 1787.84,1226.32 1787,1224.49 1785.5,1223C 1781.49,1222.5 1777.49,1222 1773.5,1221.5C 1773.5,1219.83 1773.5,1218.17 1773.5,1216.5C 1794.17,1216.33 1814.84,1216.5 1835.5,1217C 1857.95,1245.95 1880.95,1274.45 1904.5,1302.5 Z"/></g>
<g><path style="opacity:1" fill="#e7e7e7" d="M 2100.5,1215.5 C 2105.1,1216.38 2109.77,1216.72 2114.5,1216.5C 2112.84,1224.41 2111.84,1232.41 2111.5,1240.5C 2109.5,1240.5 2107.5,1240.5 2105.5,1240.5C 2105.67,1236.49 2105.5,1232.49 2105,1228.5C 2102.71,1226.23 2099.87,1225.06 2096.5,1225C 2085.51,1224.5 2074.51,1224.33 2063.5,1224.5C 2063.5,1237.5 2063.5,1250.5 2063.5,1263.5C 2073.84,1263.67 2084.17,1263.5 2094.5,1263C 2096.92,1259.25 2097.92,1255.08 2097.5,1250.5C 2099.6,1250.2 2101.6,1250.53 2103.5,1251.5C 2102.17,1262.17 2102.17,1272.83 2103.5,1283.5C 2101.6,1284.47 2099.6,1284.8 2097.5,1284.5C 2097.44,1280.78 2096.94,1277.11 2096,1273.5C 2095.25,1272.87 2094.42,1272.37 2093.5,1272C 2083.51,1271.5 2073.51,1271.33 2063.5,1271.5C 2063.5,1285.5 2063.5,1299.5 2063.5,1313.5C 2077.56,1313.93 2091.56,1313.43 2105.5,1312C 2106.52,1311.48 2107.18,1310.65 2107.5,1309.5C 2108.37,1305.13 2109.37,1300.79 2110.5,1296.5C 2112.4,1295.53 2114.4,1295.2 2116.5,1295.5C 2115.3,1304.12 2114.64,1312.79 2114.5,1321.5C 2087.83,1321.5 2061.17,1321.5 2034.5,1321.5C 2034.5,1319.83 2034.5,1318.17 2034.5,1316.5C 2037.81,1315.96 2041.15,1315.46 2044.5,1315C 2045.7,1314.1 2046.53,1312.93 2047,1311.5C 2047.67,1283.83 2047.67,1256.17 2047,1228.5C 2046.73,1226.9 2046.23,1225.4 2045.5,1224C 2041.58,1222.9 2037.58,1222.23 2033.5,1222C 2032.59,1220.3 2032.26,1218.47 2032.5,1216.5C 2055.34,1216.83 2078.01,1216.5 2100.5,1215.5 Z"/></g>
<g><path style="opacity:0.157" fill="#4b4b4b" d="M 1831.5,1235.5 C 1830.5,1258.99 1830.17,1282.66 1830.5,1306.5C 1829.34,1282.34 1829.17,1258 1830,1233.5C 1830.72,1234.04 1831.22,1234.71 1831.5,1235.5 Z"/></g>
<g><path style="opacity:0.467" fill="#7f7f7f" d="M 1905.5,1240.5 C 1906.83,1261.34 1906.83,1282.34 1905.5,1303.5C 1904.89,1303.38 1904.56,1303.04 1904.5,1302.5C 1905.5,1282.01 1905.83,1261.34 1905.5,1240.5 Z"/></g>
<g><path style="opacity:0.835" fill="#9c9c9c" d="M 724.5,1243.5 C 718.82,1245.6 712.82,1246.6 706.5,1246.5C 712.31,1245.14 718.31,1244.14 724.5,1243.5 Z"/></g>
<g><path style="opacity:1" fill="#a4a4a4" d="M 542.5,1134.5 C 543.167,1177.17 543.5,1220 543.5,1263C 543.5,1306.17 542.833,1349.01 541.5,1391.5C 541.5,1382.83 541.5,1374.17 541.5,1365.5C 542.496,1350.68 542.829,1335.68 542.5,1320.5C 542.5,1274.17 542.5,1227.83 542.5,1181.5C 542.5,1165.83 542.5,1150.17 542.5,1134.5 Z"/></g>
<g><path style="opacity:0.722" fill="#787878" d="M 513.5,1130.5 C 513.833,1130.5 514.167,1130.5 514.5,1130.5C 513.66,1197.83 513.326,1265.16 513.5,1332.5C 513.5,1344.83 513.5,1357.17 513.5,1369.5C 512.167,1289.83 512.167,1210.17 513.5,1130.5 Z"/></g>
<g><path style="opacity:0.989" fill="#4b4b4b" d="M 542.5,1320.5 C 542.829,1335.68 542.496,1350.68 541.5,1365.5C 541.167,1365.5 540.833,1365.5 540.5,1365.5C 540.333,1350.83 540.5,1336.16 541,1321.5C 541.383,1320.94 541.883,1320.61 542.5,1320.5 Z"/></g>
<g><path style="opacity:0.392" fill="#6b6b6b" d="M 513.5,1332.5 C 515.16,1367.99 515.827,1403.65 515.5,1439.5C 515.5,1444.83 515.5,1450.17 515.5,1455.5C 514.833,1435.83 514.167,1416.17 513.5,1396.5C 513.5,1387.5 513.5,1378.5 513.5,1369.5C 513.5,1357.17 513.5,1344.83 513.5,1332.5 Z"/></g>
<g><path style="opacity:0.935" fill="#727272" d="M 540.5,1365.5 C 540.833,1365.5 541.167,1365.5 541.5,1365.5C 541.5,1374.17 541.5,1382.83 541.5,1391.5C 541.826,1400.35 541.493,1409.02 540.5,1417.5C 540.5,1417.17 540.5,1416.83 540.5,1416.5C 539.846,1400.32 539.846,1383.32 540.5,1365.5 Z"/></g>
<g><path style="opacity:1" fill="#bdbdbd" d="M 1555.5,1415.5 C 1556.34,1415.84 1556.67,1416.51 1556.5,1417.5C 1549.83,1417.67 1543.16,1417.5 1536.5,1417C 1543.01,1416.83 1549.35,1416.33 1555.5,1415.5 Z"/></g>
<g><path style="opacity:0.378" fill="#4c4c4c" d="M 515.5,1439.5 C 516.82,1449.31 517.487,1459.31 517.5,1469.5C 516.833,1464.83 516.167,1460.17 515.5,1455.5C 515.5,1450.17 515.5,1444.83 515.5,1439.5 Z"/></g>
<g><path style="opacity:1" fill="#474747" d="M 540.5,1416.5 C 540.5,1416.83 540.5,1417.17 540.5,1417.5C 540.5,1429.17 540.5,1440.83 540.5,1452.5C 539.168,1466.48 538.168,1480.48 537.5,1494.5C 537.66,1482.52 537.66,1470.69 537.5,1459C 537.335,1456.08 538.002,1453.42 539.5,1451C 538.597,1446.55 538.264,1442.22 538.5,1438C 539.151,1430.73 539.818,1423.57 540.5,1416.5 Z"/></g>
<g><path style="opacity:1" fill="#b1b1b1" d="M 540.5,1452.5 C 539.707,1489.36 538.04,1526.03 535.5,1562.5C 535.5,1558.83 535.5,1555.17 535.5,1551.5C 535.5,1544.5 535.5,1537.5 535.5,1530.5C 536.815,1523.37 537.482,1516.04 537.5,1508.5C 537.5,1503.83 537.5,1499.17 537.5,1494.5C 538.168,1480.48 539.168,1466.48 540.5,1452.5 Z"/></g>
<g><path style="opacity:1" fill="#e2e2e2" d="M 333.5,1494.5 C 333.5,1520.5 333.5,1546.5 333.5,1572.5C 332.833,1588.17 332.167,1603.83 331.5,1619.5C 331.753,1577.66 332.419,1536 333.5,1494.5 Z"/></g>
<g><path style="opacity:1" fill="#e2e2e2" d="M 2194.5,1494.5 C 2194.5,1520.5 2194.5,1546.5 2194.5,1572.5C 2193.83,1588.17 2193.17,1603.83 2192.5,1619.5C 2192.75,1577.66 2193.42,1536 2194.5,1494.5 Z"/></g>
<g><path style="opacity:1" fill="#484848" d="M 537.5,1508.5 C 537.482,1516.04 536.815,1523.37 535.5,1530.5C 535.334,1523.49 535.5,1516.49 536,1509.5C 536.383,1508.94 536.883,1508.61 537.5,1508.5 Z"/></g>
<g><path style="opacity:0.345" fill="#464646" d="M 517.5,1469.5 C 518.344,1486.67 519.01,1504 519.5,1521.5C 518.679,1518.36 518.179,1515.03 518,1511.5C 517.5,1497.5 517.333,1483.5 517.5,1469.5 Z"/></g>
<g><path style="opacity:1" fill="#b7b7b7" d="M 515.5,1455.5 C 516.167,1460.17 516.833,1464.83 517.5,1469.5C 517.333,1483.5 517.5,1497.5 518,1511.5C 518.179,1515.03 518.679,1518.36 519.5,1521.5C 519.5,1528.83 519.5,1536.17 519.5,1543.5C 518.347,1536.35 517.513,1529.02 517,1521.5C 516.342,1499.5 515.842,1477.5 515.5,1455.5 Z"/></g>
<g><path style="opacity:0.402" fill="#505050" d="M 535.5,1551.5 C 535.5,1555.17 535.5,1558.83 535.5,1562.5C 534.833,1565.17 534.167,1567.83 533.5,1570.5C 533.586,1563.96 534.253,1557.63 535.5,1551.5 Z"/></g>
<g><path style="opacity:1" fill="#6e6e6e" d="M 519.5,1521.5 C 520.754,1546.14 522.088,1570.8 523.5,1595.5C 523.167,1595.5 522.833,1595.5 522.5,1595.5C 521.198,1578.33 520.198,1561 519.5,1543.5C 519.5,1536.17 519.5,1528.83 519.5,1521.5 Z"/></g>
<g><path style="opacity:0.251" fill="#3e3e3e" d="M 333.5,1572.5 C 333.833,1572.5 334.167,1572.5 334.5,1572.5C 334.181,1640.67 333.514,1708.67 332.5,1776.5C 332.425,1708.5 332.759,1640.5 333.5,1572.5 Z"/></g>
<g><path style="opacity:0.251" fill="#3e3e3e" d="M 2194.5,1572.5 C 2194.83,1572.5 2195.17,1572.5 2195.5,1572.5C 2195.18,1640.67 2194.51,1708.67 2193.5,1776.5C 2193.43,1708.5 2193.76,1640.5 2194.5,1572.5 Z"/></g>
<g><path style="opacity:1" fill="#adadae" d="M 538.5,1569.5 C 539.794,1571.05 540.461,1573.05 540.5,1575.5C 540.333,1577.5 540.167,1579.5 540,1581.5C 538.576,1577.7 538.076,1573.7 538.5,1569.5 Z"/></g>
<g><path style="opacity:0.895" fill="#4c4c4c" d="M 533.5,1570.5 C 532.916,1588.84 532.249,1607.17 531.5,1625.5C 531.167,1625.5 530.833,1625.5 530.5,1625.5C 530.624,1616.01 530.624,1606.68 530.5,1597.5C 530.477,1595.93 530.977,1594.6 532,1593.5C 532.171,1585.66 532.671,1577.99 533.5,1570.5 Z"/></g>
<g><path style="opacity:1" fill="#878787" d="M 522.5,1595.5 C 522.833,1595.5 523.167,1595.5 523.5,1595.5C 524.473,1597.95 524.806,1600.61 524.5,1603.5C 524.5,1606.17 524.5,1608.83 524.5,1611.5C 524.167,1611.5 523.833,1611.5 523.5,1611.5C 522.512,1606.36 522.179,1601.03 522.5,1595.5 Z"/></g>
<g><path style="opacity:1" fill="#c5c5c5" d="M 535.5,1562.5 C 534.853,1588.53 533.52,1614.53 531.5,1640.5C 530.831,1642.63 530.165,1644.63 529.5,1646.5C 529.5,1642.17 529.5,1637.83 529.5,1633.5C 531.369,1631.36 532.036,1628.7 531.5,1625.5C 532.249,1607.17 532.916,1588.84 533.5,1570.5C 534.167,1567.83 534.833,1565.17 535.5,1562.5 Z"/></g>
<g><path style="opacity:0.254" fill="#6f6f6f" d="M 692.5,1355.5 C 692.5,1489.83 692.5,1624.17 692.5,1758.5C 661.995,1758.83 631.662,1758.5 601.5,1757.5C 631.5,1757.5 661.5,1757.5 691.5,1757.5C 691.167,1623.33 691.5,1489.33 692.5,1355.5 Z"/></g>
<g><path style="opacity:1" fill="#838383" d="M 530.5,1625.5 C 530.833,1625.5 531.167,1625.5 531.5,1625.5C 532.036,1628.7 531.369,1631.36 529.5,1633.5C 529.194,1630.61 529.527,1627.95 530.5,1625.5 Z"/></g>
<g><path style="opacity:1" fill="#aaaaaa" d="M 523.5,1611.5 C 523.833,1611.5 524.167,1611.5 524.5,1611.5C 523.868,1619.57 524.535,1627.24 526.5,1634.5C 527.046,1640.26 527.379,1646.26 527.5,1652.5C 526.402,1648.99 525.402,1645.32 524.5,1641.5C 523.501,1631.52 523.168,1621.52 523.5,1611.5 Z"/></g>
<g><path style="opacity:1" fill="#5c5c5c" d="M 524.5,1603.5 C 525.395,1613.67 526.061,1624 526.5,1634.5C 524.535,1627.24 523.868,1619.57 524.5,1611.5C 524.5,1608.83 524.5,1606.17 524.5,1603.5 Z"/></g>
<g><path style="opacity:0.103" fill="#3f3f3f" d="M 306.5,915.5 C 306.5,929.5 306.5,943.5 306.5,957.5C 306.5,1162.17 306.5,1366.83 306.5,1571.5C 306.754,1597.83 307.087,1624.17 307.5,1650.5C 306.669,1638.67 306.169,1626.67 306,1614.5C 305.167,1381.33 305.334,1148.33 306.5,915.5 Z"/></g>
<g><path style="opacity:0.105" fill="#3f3f3f" d="M 2167.5,915.5 C 2167.5,929.5 2167.5,943.5 2167.5,957.5C 2167.5,1162.17 2167.5,1366.83 2167.5,1571.5C 2167.75,1597.83 2168.09,1624.17 2168.5,1650.5C 2167.67,1638.67 2167.17,1626.67 2167,1614.5C 2166.17,1381.33 2166.33,1148.33 2167.5,915.5 Z"/></g>
<g><path style="opacity:1" fill="#adadad" d="M 333.5,1572.5 C 332.759,1640.5 332.425,1708.5 332.5,1776.5C 332.5,1784.83 332.5,1793.17 332.5,1801.5C 332.167,1801.5 331.833,1801.5 331.5,1801.5C 331.5,1740.83 331.5,1680.17 331.5,1619.5C 332.167,1603.83 332.833,1588.17 333.5,1572.5 Z"/></g>
<g><path style="opacity:1" fill="#adadad" d="M 2194.5,1572.5 C 2193.76,1640.5 2193.43,1708.5 2193.5,1776.5C 2193.5,1784.83 2193.5,1793.17 2193.5,1801.5C 2193.17,1801.5 2192.83,1801.5 2192.5,1801.5C 2192.5,1740.83 2192.5,1680.17 2192.5,1619.5C 2193.17,1603.83 2193.83,1588.17 2194.5,1572.5 Z"/></g>
<g><path style="opacity:1" fill="#636363" d="M 529.5,1633.5 C 529.5,1637.83 529.5,1642.17 529.5,1646.5C 529.608,1650.25 529.108,1653.91 528,1657.5C 527.506,1655.87 527.34,1654.2 527.5,1652.5C 528.167,1646.17 528.833,1639.83 529.5,1633.5 Z"/></g>
<g><path style="opacity:0.528" fill="#909090" d="M 306.5,1571.5 C 308.113,1608.65 308.78,1645.99 308.5,1683.5C 308.167,1683.5 307.833,1683.5 307.5,1683.5C 307.5,1672.5 307.5,1661.5 307.5,1650.5C 307.087,1624.17 306.754,1597.83 306.5,1571.5 Z"/></g>
<g><path style="opacity:0.528" fill="#909090" d="M 2167.5,1571.5 C 2169.11,1608.65 2169.78,1645.99 2169.5,1683.5C 2169.17,1683.5 2168.83,1683.5 2168.5,1683.5C 2168.5,1672.5 2168.5,1661.5 2168.5,1650.5C 2168.09,1624.17 2167.75,1597.83 2167.5,1571.5 Z"/></g>
<g><path style="opacity:0.301" fill="#515151" d="M 2168.5,1683.5 C 2168.83,1683.5 2169.17,1683.5 2169.5,1683.5C 2169.37,1735.5 2169.7,1787.5 2170.5,1839.5C 2170.5,1849.5 2170.5,1859.5 2170.5,1869.5C 2168.85,1807.67 2168.18,1745.67 2168.5,1683.5 Z"/></g>
<g><path style="opacity:0.302" fill="#525252" d="M 307.5,1683.5 C 307.833,1683.5 308.167,1683.5 308.5,1683.5C 308.367,1735.5 308.7,1787.5 309.5,1839.5C 309.5,1849.5 309.5,1859.5 309.5,1869.5C 307.851,1807.67 307.184,1745.67 307.5,1683.5 Z"/></g>
<g><path style="opacity:0.408" fill="#5b5b5b" d="M 331.5,1801.5 C 331.833,1801.5 332.167,1801.5 332.5,1801.5C 331.947,1840.33 331.281,1879 330.5,1917.5C 330.5,1911.83 330.5,1906.17 330.5,1900.5C 330.168,1867.33 330.502,1834.33 331.5,1801.5 Z"/></g>
<g><path style="opacity:0.405" fill="#5b5b5b" d="M 2192.5,1801.5 C 2192.83,1801.5 2193.17,1801.5 2193.5,1801.5C 2192.96,1840.33 2192.29,1879 2191.5,1917.5C 2191.5,1911.83 2191.5,1906.17 2191.5,1900.5C 2191.17,1867.33 2191.5,1834.33 2192.5,1801.5 Z"/></g>
<g><path style="opacity:0.32" fill="#6d6d6d" d="M 309.5,1839.5 C 310.306,1870 310.973,1900.67 311.5,1931.5C 311.167,1931.5 310.833,1931.5 310.5,1931.5C 309.614,1910.85 309.28,1890.18 309.5,1869.5C 309.5,1859.5 309.5,1849.5 309.5,1839.5 Z"/></g>
<g><path style="opacity:0.32" fill="#6d6d6d" d="M 2170.5,1839.5 C 2171.21,1866.35 2171.88,1893.35 2172.5,1920.5C 2172.5,1924.17 2172.5,1927.83 2172.5,1931.5C 2172.17,1931.5 2171.83,1931.5 2171.5,1931.5C 2170.61,1910.85 2170.28,1890.18 2170.5,1869.5C 2170.5,1859.5 2170.5,1849.5 2170.5,1839.5 Z"/></g>
<g><path style="opacity:0.559" fill="#707070" d="M 330.5,1900.5 C 330.5,1906.17 330.5,1911.83 330.5,1917.5C 329.951,1946.33 329.285,1975 328.5,2003.5C 328.333,1977.5 328.5,1951.5 329,1925.5C 329.171,1916.99 329.671,1908.66 330.5,1900.5 Z"/></g>
<g><path style="opacity:0.559" fill="#707070" d="M 2191.5,1900.5 C 2191.5,1906.17 2191.5,1911.83 2191.5,1917.5C 2190.96,1946.33 2190.3,1975 2189.5,2003.5C 2189.33,1977.5 2189.5,1951.5 2190,1925.5C 2190.17,1916.99 2190.67,1908.66 2191.5,1900.5 Z"/></g>
<g><path style="opacity:1" fill="#bebebe" d="M 2172.5,1920.5 C 2174.51,1968.65 2175.51,2016.98 2175.5,2065.5C 2175.17,2065.5 2174.83,2065.5 2174.5,2065.5C 2174.06,2020.83 2173.39,1976.16 2172.5,1931.5C 2172.5,1927.83 2172.5,1924.17 2172.5,1920.5 Z"/></g>
<g><path style="opacity:1" fill="#bababa" d="M 311.5,1942.5 C 313.904,1983.31 314.904,2024.31 314.5,2065.5C 314.167,2065.5 313.833,2065.5 313.5,2065.5C 313.51,2024.48 312.844,1983.48 311.5,1942.5 Z"/></g>
<g><path style="opacity:0.284" fill="#515151" d="M 310.5,1931.5 C 310.833,1931.5 311.167,1931.5 311.5,1931.5C 311.5,1935.17 311.5,1938.83 311.5,1942.5C 312.844,1983.48 313.51,2024.48 313.5,2065.5C 311.812,2021.01 310.812,1976.34 310.5,1931.5 Z"/></g>
<g><path style="opacity:0.285" fill="#515151" d="M 2171.5,1931.5 C 2171.83,1931.5 2172.17,1931.5 2172.5,1931.5C 2173.39,1976.16 2174.06,2020.83 2174.5,2065.5C 2172.81,2021.01 2171.81,1976.34 2171.5,1931.5 Z"/></g>
<g><path style="opacity:0.546" fill="#888888" d="M 328.5,2003.5 C 327.806,2015.15 327.473,2026.82 327.5,2038.5C 327.167,2038.5 326.833,2038.5 326.5,2038.5C 326.5,2031.5 326.5,2024.5 326.5,2017.5C 325.897,2012.38 326.564,2007.71 328.5,2003.5 Z"/></g>
<g><path style="opacity:0.547" fill="#888888" d="M 2189.5,2003.5 C 2188.81,2015.15 2188.47,2026.82 2188.5,2038.5C 2188.17,2038.5 2187.83,2038.5 2187.5,2038.5C 2186.85,2026.45 2187.52,2014.79 2189.5,2003.5 Z"/></g>
<g><path style="opacity:0.231" fill="#626262" d="M 326.5,2038.5 C 326.833,2038.5 327.167,2038.5 327.5,2038.5C 327.721,2050.19 327.388,2061.86 326.5,2073.5C 326.167,2073.5 325.833,2073.5 325.5,2073.5C 326.302,2061.85 326.635,2050.18 326.5,2038.5 Z"/></g>
<g><path style="opacity:0.231" fill="#626262" d="M 2187.5,2038.5 C 2187.83,2038.5 2188.17,2038.5 2188.5,2038.5C 2188.72,2050.19 2188.39,2061.86 2187.5,2073.5C 2187.17,2073.5 2186.83,2073.5 2186.5,2073.5C 2187.3,2061.85 2187.64,2050.18 2187.5,2038.5 Z"/></g>
<g><path style="opacity:0.387" fill="#5c5c5c" d="M 2174.5,2065.5 C 2174.83,2065.5 2175.17,2065.5 2175.5,2065.5C 2176.17,2065.5 2176.5,2065.83 2176.5,2066.5C 2175.98,2091.39 2176.98,2116.05 2179.5,2140.5C 2179.33,2145.51 2179.5,2150.51 2180,2155.5C 2180.25,2156.62 2180.75,2157.62 2181.5,2158.5C 2182.47,2156.26 2182.81,2153.92 2182.5,2151.5C 2184.35,2125.53 2185.68,2099.53 2186.5,2073.5C 2186.83,2073.5 2187.17,2073.5 2187.5,2073.5C 2186.84,2102.23 2185.34,2130.89 2183,2159.5C 2181.29,2160.93 2179.95,2160.59 2179,2158.5C 2176.62,2127.73 2175.12,2096.73 2174.5,2065.5 Z"/></g>
<g><path style="opacity:1" fill="#cfcfcf" d="M 2176.5,2066.5 C 2177.97,2090.99 2178.97,2115.66 2179.5,2140.5C 2176.98,2116.05 2175.98,2091.39 2176.5,2066.5 Z"/></g>
<g><path style="opacity:1" fill="#d9d9d9" d="M 326.5,2017.5 C 326.5,2024.5 326.5,2031.5 326.5,2038.5C 326.635,2050.18 326.302,2061.85 325.5,2073.5C 325.164,2094.19 324.331,2114.85 323,2135.5C 322.802,2137.38 322.302,2139.05 321.5,2140.5C 323.415,2099.36 325.081,2058.36 326.5,2017.5 Z"/></g>
<g><path style="opacity:0.251" fill="#585858" d="M 313.5,2065.5 C 313.833,2065.5 314.167,2065.5 314.5,2065.5C 315.44,2090.52 316.774,2115.52 318.5,2140.5C 318.334,2145.51 318.501,2150.51 319,2155.5C 319.249,2156.62 319.749,2157.62 320.5,2158.5C 321.474,2156.26 321.808,2153.92 321.5,2151.5C 321.5,2147.83 321.5,2144.17 321.5,2140.5C 322.302,2139.05 322.802,2137.38 323,2135.5C 324.331,2114.85 325.164,2094.19 325.5,2073.5C 325.833,2073.5 326.167,2073.5 326.5,2073.5C 325.844,2102.23 324.344,2130.89 322,2159.5C 320.286,2160.93 318.953,2160.59 318,2158.5C 315.636,2128.04 314.136,2097.04 313.5,2065.5 Z"/></g>
<g><path style="opacity:1" fill="#b8b8b8" d="M 318.5,2140.5 C 318.875,2144.44 319.875,2148.11 321.5,2151.5C 321.808,2153.92 321.474,2156.26 320.5,2158.5C 319.749,2157.62 319.249,2156.62 319,2155.5C 318.501,2150.51 318.334,2145.51 318.5,2140.5 Z"/></g>
<g><path style="opacity:1" fill="#b8b8b8" d="M 2179.5,2140.5 C 2179.87,2144.44 2180.87,2148.11 2182.5,2151.5C 2182.81,2153.92 2182.47,2156.26 2181.5,2158.5C 2180.75,2157.62 2180.25,2156.62 2180,2155.5C 2179.5,2150.51 2179.33,2145.51 2179.5,2140.5 Z"/></g>
</svg>
